<svg xmlns="http://www.w3.org/2000/svg" viewBox="0 0 420.76 434.26"><title>Black</title><g id="Layer_2" data-name="Layer 2"><g id="Layer_1-2" data-name="Layer 1"><path d="M356.37,332.6a65.27,65.27,0,0,1,0-16.15c1.16-8.28,4.76-21.86-3.27-35.31A166.82,166.82,0,0,0,364,257.73c-1.79,6.4-3.59,15.14-2.26,21.07,2.46,10.82,18.85,20.45,18.85,20.45a68.67,68.67,0,0,1-3.48-15.86c-.43-8.41.27-22.39-10.3-33.78a167.8,167.8,0,0,0,5.9-25.28c-.43,6.66-.39,15.56,2.08,21.12,4.49,10.08,22.48,15.86,22.48,15.86a64.58,64.58,0,0,1-6.53-14.82c-2.16-8-4.19-21.8-16.93-30.84q.82-8.34.83-16.89c0-3.49-.14-6.94-.34-10.37.83,6.73,2.63,16.39,6.44,21.64,6.52,8.89,25.23,10.82,25.23,10.82a67,67,0,0,1-9.28-13.2c-3.91-7.39-8.69-20.55-23-26.64a168.26,168.26,0,0,0-4.8-25.89c2.2,6.31,5.83,14.79,10.52,18.89,8.12,7.41,26.83,5.19,26.83,5.19a60.1,60.1,0,0,1-11.75-10.82c-5.35-6.36-12.72-18.17-27.87-21a165.9,165.9,0,0,0-9.91-24.23c3.47,5.68,8.71,13,14,16.05,9.43,5.48,27.41-.6,27.41-.6a63,63,0,0,1-13.78-8c-6.5-5.17-16.17-15.18-31.58-14.82A165.44,165.44,0,0,0,338,93.92c4.55,4.85,11.31,11.17,17.22,13.09,10.3,3.26,26.69-6.52,26.69-6.52a60.79,60.79,0,0,1-15.23-4.89c-7.23-3.69-18.78-11.5-33.79-7.74A164,164,0,0,0,313.3,69.15c5.47,3.84,13.76,8.92,20.15,9.55,10.74,1,24.66-12,24.66-12a57.47,57.47,0,0,1-15.81-1.63c-7.81-2.07-20.67-7.09-34.7-.34a160,160,0,0,0-22.4-13.9c6.1,2.57,14.9,5.61,21.13,4.9,10.73-1.33,21.76-17,21.76-17a55.81,55.81,0,0,1-15.81,1.77c-8.1-.29-21.68-2.65-34,7a158.84,158.84,0,0,0-23.93-8.62c6.43,1.14,15.14,2,20.78.1,10.3-3.56,18-21.19,18-21.19a62.94,62.94,0,0,1-15.08,5c-8.08,1.47-21.76,2.07-31.9,14.06a157.29,157.29,0,0,0-25.75-3.34c6.6-.21,15.67-1.13,20.95-4.35,9.29-5.63,13.2-24.61,13.2-24.61a62.53,62.53,0,0,1-13.78,8.31c-7.51,2.95-20.93,6.5-28.34,20.46a160,160,0,0,0-25.5,2.11c6.36-1.62,14.86-4.43,19.33-8.64,8-7.56,7.83-26.83,7.83-26.83a62.36,62.36,0,0,1-11.75,11c-6.79,4.57-19,10.92-23.43,26a159,159,0,0,0-25.18,7.75c6-2.89,14.08-7.51,17.72-12.73,6.23-9.05,2.17-27.87,2.17-27.87a63.82,63.82,0,0,1-9.28,13.19c-5.65,5.92-16.49,14.64-17.68,30.45A160,160,0,0,0,124,60.45c5.2-4.1,12-10.24,14.36-16,4.35-10.23-3.48-27.87-3.48-27.87a64.59,64.59,0,0,1-6.38,15c-4.34,7.09-13.14,17.87-11,33.51A163.81,163.81,0,0,0,98.36,81.75c4.15-5.11,9.14-12.25,10.29-18.16,2.17-10.82-9.14-26.39-9.14-26.39a61.69,61.69,0,0,1-3.19,15.86c-2.74,7.82-9.07,20.34-4,35.21a165.16,165.16,0,0,0-15.62,20.92c3.1-5.92,6.77-14.28,6.69-20.56-.15-11-14.21-23.86-14.21-23.86a70.7,70.7,0,0,1,.14,16.31c-1.3,8.27-4.9,21.69,3.11,35.27a167.25,167.25,0,0,0-10.83,23.24c1.77-6.4,3.52-15.06,2.21-21-2.32-10.81-18.71-20.3-18.71-20.3a62.41,62.41,0,0,1,3.34,15.86c.57,8.26-.28,22.24,10.29,33.76a168,168,0,0,0-5.83,24.9c.44-6.63.38-15.38-2.14-20.87-4.5-10.07-22.48-15.86-22.48-15.86a61.24,61.24,0,0,1,6.52,14.83c2.17,8,4.34,21.8,17,30.85q-.84,8.38-.85,17c0,2.74.07,5.45.2,8.15-.95-6.5-2.78-14.77-6.29-19.41-6.53-8.9-25.24-10.82-25.24-10.82a61.25,61.25,0,0,1,9.43,13c3.75,7.37,8.65,20.44,22.81,26.56a168.06,168.06,0,0,0,4.51,25c-2.25-6.18-5.73-13.95-10.06-17.88-8.27-7.27-27-5.19-27-5.19A62.69,62.69,0,0,1,31.2,229c5.19,6.33,12.54,18.23,27.73,21.14a167.12,167.12,0,0,0,9.7,23.78c-3.45-5.66-8.55-12.79-13.79-15.72-9.43-5.49-27.27.74-27.27.74a59.73,59.73,0,0,1,13.78,8c6.36,5.17,16,15.2,31.47,14.82a165.12,165.12,0,0,0,14.17,21C82.46,298,76.1,292.25,70.5,290.51c-10.44-3.26-26.69,6.37-26.69,6.37a62.73,62.73,0,0,1,15.09,5c7.36,3.54,18.74,11.32,33.85,7.76A163.8,163.8,0,0,0,111,327.29c-5.39-3.69-12.83-8-18.71-8.62-10.88-1-24.8,12-24.8,12a64,64,0,0,1,15.8,1.63c7.94,2.06,20.77,7.2,34.62.38a161,161,0,0,0,21.33,13.37c-6-2.44-14.13-5.08-20-4.42C108.5,343,97.48,358.69,97.48,358.69a62.48,62.48,0,0,1,15.81-1.78c8.07.3,21.6,2.63,33.87-7a159.35,159.35,0,0,0,23.59,8.55c-6.39-1.14-14.83-2-20.33-.11-10.3,3.56-17.84,21.35-17.84,21.35a59.46,59.46,0,0,1,15.08-5.19c8.08-1.33,21.77-2.08,31.76-13.92a158,158,0,0,0,24.2,3.26c-6.38.31-14.46,1.32-19.41,4.29-9.28,5.63-13.05,24.6-13.05,24.6a62,62,0,0,1,13.63-8.15c7.63-3.09,20.83-6.63,28.26-20.46a159.85,159.85,0,0,0,25.3-2.07c-6.31,1.59-14.54,4.33-18.9,8.45-8,7.56-8,26.82-8,26.82a62.26,62.26,0,0,1,11.74-11c6.8-4.58,19.2-10.93,23.6-25.94a158,158,0,0,0,23.65-7.17c-5.77,2.92-12.93,7.24-16.21,12.06-6.38,9.19-2.32,28-2.32,28a59.8,59.8,0,0,1,9.28-13.19c5.78-6.05,16.43-14.74,17.67-30.46a160.27,160.27,0,0,0,22.62-12.66c-5.19,4.1-11.88,10.17-14.32,15.85-4.21,10.23,3.48,27.86,3.48,27.86A61.62,61.62,0,0,1,297.05,366c4.34-7.09,13.14-18,11.18-33.65a164.12,164.12,0,0,0,20.24-17.94c-4.33,5.1-10.21,13-11.55,19.43-2,10.82,9.14,26.38,9.14,26.38a62.33,62.33,0,0,1,3.19-15.86c2.89-7.85,9.26-20.43,4.07-35.23A166.1,166.1,0,0,0,349,288c-3.14,5.92-7,14.45-6.87,20.77C342.3,319.86,356.37,332.6,356.37,332.6ZM327.8,296.14c6.31-.91,14.36-6.43,19.65-10.58a164.12,164.12,0,0,1-16.28,22c-12.15-7.43-24.68-4.75-32.38-4.05a59.49,59.49,0,0,1-16-1s11.74,15.12,22.62,15.86c6.46.46,15.53-3.28,21.51-6.2-.5.53-1,1.09-1.49,1.61a160.43,160.43,0,0,1-19,16.58c-10.34-9.89-23.15-10-30.86-10.8a63,63,0,0,1-15.37-4.45s8.41,17.34,18.85,20.31c6.36,1.85,16.11.05,22.53-1.55a158.1,158.1,0,0,1-23.95,13.51c-8.08-11.8-20.72-14.62-28-17.15a64.32,64.32,0,0,1-14.07-7.56s4.64,18.68,14.22,23.87c5.78,3.14,15.68,3.46,22.32,3.25A156.16,156.16,0,0,1,246,357.93c-5.53-13.31-17.33-18.73-23.94-22.81a63.84,63.84,0,0,1-12.18-10.37s.73,19.27,9,26.38c5,4.3,14.51,6.74,21,8a156.11,156.11,0,0,1-27.08,2.4c-2.67-14.3-13.13-21.93-18.77-27.41a68,68,0,0,1-9.86-12.75s-3.19,19.12,3.48,27.86c4,5.21,12.77,9.56,18.9,12.15a155.94,155.94,0,0,1-26.9-3.39c.37-14.53-8.33-24.23-12.74-30.84a64.66,64.66,0,0,1-7.11-14.53s-7,17.94-2.17,28c2.88,6,10.65,12.15,16.11,15.95a154.83,154.83,0,0,1-25.67-9.1c3.17-14.17-3.23-25.48-6.25-32.79A69.38,69.38,0,0,1,137.8,299s-10.44,16-7.69,26.82c1.53,6.44,7.85,14.12,12.44,19a156.74,156.74,0,0,1-23.26-14.39c6-13.14,2-25.66.52-33.39a61.22,61.22,0,0,1-.72-16.16S105.6,294.36,106,305.33c.18,6.64,4.73,15.39,8.22,21.17a159.26,159.26,0,0,1-14-12.72c-2-2-3.88-4.1-5.75-6.22,8.49-11.54,7.21-24.46,7.35-32.47a66.25,66.25,0,0,1,2.61-16s-16,10.37-17.84,21.34c-1.07,6.47,1.59,16,3.8,22.32a163.21,163.21,0,0,1-15.47-22.66c10.64-9.42,12-22.47,13.7-30.19a68.15,68.15,0,0,1,6-15.12s-17.7,6.67-21.76,17C70.39,258,71.09,268,72,274.67a163.91,163.91,0,0,1-10.63-25.62c12.49-7.09,16.44-19.56,19.6-26.72a63.38,63.38,0,0,1,8.85-13.49s-18.71,2.82-24.8,12c-3.57,5.46-4.94,15.28-5.47,22.05a165.29,165.29,0,0,1-5.12-27.14c13.61-4.21,20-15.57,24.66-21.89a68.52,68.52,0,0,1,11.31-11.41S71.52,181.27,63.83,189c-4.64,4.56-8,13.88-9.92,20.38-.23-3.51-.38-7-.38-10.6a168.16,168.16,0,0,1,.87-17c14.13-1.23,22.79-11,28.57-16.16a60,60,0,0,1,13.49-8.74s-18.27-5.19-27.41.74c-5.57,3.48-10.74,12-13.87,17.92a164.6,164.6,0,0,1,6.14-27.06c14.07,1.76,24.48-5.89,31.23-9.69A58.54,58.54,0,0,1,107.49,133s-16.68-8.89-27-5c-6.16,2.22-13,9.52-17.26,14.7a164,164,0,0,1,11.64-25.26c13.44,4.77,25.17-.54,32.6-2.93a59,59,0,0,1,15.66-2.37s-14.5-12.3-25.38-10.82c-6.35.92-14.39,6.5-19.64,10.65a163.61,163.61,0,0,1,16.33-22c12.13,7.49,24.64,4.68,32.46,4a66.8,66.8,0,0,1,15.81,1S131,79.74,120.1,79c-6.37-.45-15.28,3.18-21.25,6.08.46-.49.91-1,1.38-1.48a158.45,158.45,0,0,1,18.94-16.55c10.34,9.86,23.25,9.93,31,10.91a59.28,59.28,0,0,1,15.23,4.3S156.94,65.07,146.5,62c-6.23-1.85-15.94-.08-22.39,1.53a155.76,155.76,0,0,1,24-13.48c8.08,11.92,20.6,14.61,28,17.28a60.55,60.55,0,0,1,14.07,7.41S185.37,56,175.8,50.84c-5.75-3.12-15.51-3.46-22.1-3.26a155.88,155.88,0,0,1,26-8c5.53,13.38,17.18,18.65,23.77,22.72a61.84,61.84,0,0,1,12.33,10.38s-.73-19.27-9.14-26.39c-4.86-4.24-14.12-6.66-20.62-7.91A157.8,157.8,0,0,1,212.77,36c2.82,14.22,13.1,21.94,18.72,27.27A61,61,0,0,1,241.35,76s3.2-19-3.48-27.72c-3.88-5.14-12.47-9.5-18.61-12.14a156.77,156.77,0,0,1,26.63,3.36c-.21,14.48,8.33,24.26,12.72,30.72a64.69,64.69,0,0,1,7.11,14.52s7-17.93,2.18-27.86C265.13,51,257.46,44.83,252,41A156.79,156.79,0,0,1,277.61,50c-3.18,14.06,3.21,25.51,6.24,32.81a63.7,63.7,0,0,1,3.92,15.72s10.44-16.16,7.83-26.83c-1.62-6.54-7.94-14.21-12.49-19.09A158.73,158.73,0,0,1,306.44,67c-6,13-2.06,25.58-.54,33.31a66.17,66.17,0,0,1,.58,16.31S320,103.16,319.67,92c-.27-6.63-4.9-15.49-8.38-21.25A159.26,159.26,0,0,1,325.48,83.6c1.94,2,3.82,4.05,5.66,6.14-8.55,11.58-7.26,24.66-7.26,32.54a63,63,0,0,1-2.75,16s15.95-10.23,17.83-21.2c1.18-6.54-1.57-16.22-3.82-22.62a165.36,165.36,0,0,1,15.57,22.87c-10.71,9.55-12,22.57-13.78,30.29a64.53,64.53,0,0,1-5.8,15s17.7-6.67,21.76-16.9c2.4-6.09,1.74-16,.88-22.7a163.28,163.28,0,0,1,10.49,25.44c-12.38,7-16.34,19.44-19.64,26.61a62.74,62.74,0,0,1-8.85,13.48s18.71-2.81,24.81-12c3.57-5.48,4.94-15.29,5.47-22a165.61,165.61,0,0,1,5.11,27.13c-13.48,4.32-20,15.55-24.65,22a59.36,59.36,0,0,1-11.32,11.27s18.86,1.18,26.69-6.52c4.61-4.53,7.9-13.74,9.78-20.23.22,3.5.37,7,.37,10.59a168.48,168.48,0,0,1-.85,16.9c-14.18,1.27-22.69,11-28.59,16.3a60.07,60.07,0,0,1-13.34,8.6s18.13,5.19,27.41-.59c5.41-3.54,10.53-11.88,13.71-17.84a164.92,164.92,0,0,1-6.1,26.81c-14.13-1.72-24.38,5.92-31.25,9.85a61.93,61.93,0,0,1-14.8,5.63s16.68,8.9,26.84,5.19c6.09-2.29,12.89-9.49,17.2-14.66A164.12,164.12,0,0,1,350.73,280c-13.4-4.58-25.1.7-32.51,2.94a59.71,59.71,0,0,1-15.66,2.37S317.06,297.62,327.8,296.14Z"/><path d="M212.78,85.87c-60.87,0-110.39,50.61-110.39,112.82S151.91,311.5,212.78,311.5s110.39-50.61,110.39-112.81S273.65,85.87,212.78,85.87Zm0,212.9c-54.08,0-97.93-44.81-97.93-100.08S158.7,98.61,212.78,98.61s97.93,44.8,97.93,100.08S266.87,298.77,212.78,298.77Z"/><path d="M246,197.32l-.08-1.71H211v6.15h28.86a28.18,28.18,0,0,1-7,15.76c-.51.56-1.06,1.13-1.66,1.69a26.88,26.88,0,0,1-18.42,7.34c-15,0-27.26-12.5-27.26-27.86s12.23-27.86,27.26-27.86a26.82,26.82,0,0,1,17,6.11l-2.44,2.5a23.43,23.43,0,0,0-14.58-5.1c-13.14,0-23.83,10.92-23.83,24.35S199.64,223,212.78,223a23.49,23.49,0,0,0,15.87-6.2,24.81,24.81,0,0,0,1.9-1.94l1.1-1.27-4.26-4.37-1.24,1.44a17.92,17.92,0,0,1-1.61,1.65,17.55,17.55,0,0,1-11.76,4.54,18.2,18.2,0,0,1,0-36.4A17.57,17.57,0,0,1,224.54,185a19.43,19.43,0,0,1,1.61,1.66l1.24,1.43,11-11.21-1.14-1.27c-.6-.66-1.23-1.31-1.87-1.91a32.76,32.76,0,0,0-22.57-9c-18.35,0-33.28,15.25-33.28,34s14.93,34,33.28,34a32.72,32.72,0,0,0,22.56-9c.63-.58,1.26-1.23,1.88-1.91a34.3,34.3,0,0,0,8.81-21.7c0-.41,0-.86,0-1.36S246.05,197.73,246,197.32ZM244.28,200a32.4,32.4,0,0,1-8.36,20.56c-.56.63-1.15,1.23-1.76,1.81a31.07,31.07,0,0,1-21.38,8.56c-17.38,0-31.52-14.45-31.52-32.21s14.14-32.22,31.52-32.22A31,31,0,0,1,234.16,175c.61.57,1.2,1.18,1.76,1.8l-1.76,1.81-6.69,6.83a20,20,0,0,0-1.77-1.8,19.2,19.2,0,0,0-12.92-5,20,20,0,0,0,0,40,19.25,19.25,0,0,0,12.92-5,20.15,20.15,0,0,0,1.77-1.81l1.77,1.81a23.28,23.28,0,0,1-1.77,1.81,21.72,21.72,0,0,1-14.69,5.73,22.56,22.56,0,0,1,0-45.1,21.69,21.69,0,0,1,14.69,5.73l4.92-5A28.58,28.58,0,0,0,212.78,169c-16,0-29,13.3-29,29.66s13,29.66,29,29.66a28.59,28.59,0,0,0,19.61-7.82c.61-.57,1.21-1.17,1.77-1.8A29.9,29.9,0,0,0,241.78,200h-29v-2.56h31.5c0,.43,0,.85,0,1.28S244.3,199.54,244.28,200Z"/><path d="M251,199.65V199h24.42l.11.58a5.46,5.46,0,1,0,0-2.08l-.11.57H251l0-.68a39.59,39.59,0,0,0-3.37-14.6l-.45-1h16.25V161.86l12.74-6.09.34.47a5.24,5.24,0,0,0,4.3,2.25,5.46,5.46,0,1,0-5.34-5.45,5.61,5.61,0,0,0,.18,1.32l.14.56-13.27,6.35V180.8H246.73l-.19-.37a37.9,37.9,0,0,0-67.57,0l-.2.37H164.49V152.57H150.1L150,152a5.46,5.46,0,1,0,0,2.09l.11-.58h13.48v28.29h14.74l-.45,1a39.56,39.56,0,0,0-3.36,14.94l0,.69H150.1l-.11-.58a5.46,5.46,0,1,0,0,2.09l.11-.58h24.39l0,.69a39.37,39.37,0,0,0,3.2,14.6l.43,1h-16v19.87l-12.75,6.1-.34-.48a5.24,5.24,0,0,0-4.3-2.25,5.46,5.46,0,1,0,5.34,5.46,5,5,0,0,0-.18-1.32l-.13-.57,13.27-6.34V216.57h15.56l.19.38a39.15,39.15,0,0,0,13.86,15.24,37.48,37.48,0,0,0,40.23,0,39.1,39.1,0,0,0,13.85-15.28l.2-.38h14.14V244.8h14.39l.11.58a5.46,5.46,0,1,0,0-2.08l-.11.57H262V215.59H247.41l.42-1A39.45,39.45,0,0,0,251,199.65Zm-38.28,37.46c-20.62,0-37.4-17.15-37.4-38.22s16.78-38.23,37.4-38.23,37.4,17.15,37.4,38.23S233.39,237.11,212.76,237.11Z"/><path d="M19.5,295.12c.38-.44.51-.65.42-.83s-.39-.22-1.11-.17L3.45,295.21c-1.23.09-2.13.05-2.7-.83a5.07,5.07,0,0,1-.34-.61c-.08-.17-.16-.23-.29-.17s-.15.22,0,.49c.51,1.06,1.11,2.15,1.22,2.37.3.64.66,1.54,1,2.19.11.23.21.33.37.25s.14-.14,0-.39l-.14-.3c-.31-.63-.12-.95.25-1.13a4.42,4.42,0,0,1,1.42-.3l3.38-.27c.14,0,.2,0,.25.1L10,301.15a.23.23,0,0,1,0,.28l-3.51,3.69a.38.38,0,0,1-.57,0c-.12-.19-.2-.25-.32-.19s0,.31.13.69c.74,1.65,1.45,3.14,1.8,3.87s.49.92.66.84.12-.18,0-.35a5,5,0,0,1-.33-.89c-.1-.48-.09-1.21,1.41-2.89C11.83,303.42,18.59,296.15,19.5,295.12Zm-10.42,1.4c0-.08,0-.14.1-.16l6-.57c.1,0,.22,0,.25,0s-.07.13-.14.19l-4.24,4.3c-.05.05-.12.06-.17-.05Z"/><path d="M33.82,323.07c.71-.4,1.14-.45,1.56,0a3.11,3.11,0,0,1,.41.52c.14.23.25.32.39.24s.09-.25-.07-.52c-.47-.74-1.29-1.91-1.43-2.14,0,0-.71-1.26-1.32-2.24-.17-.27-.3-.38-.43-.29s-.11.23,0,.44a4.5,4.5,0,0,1,.37.72c.26.72,0,1.07-.6,1.52s-1.15.78-4.12,2.65l-2.45,1.53c-2,1.27-3.81,2.32-5.55,1.94a4.37,4.37,0,0,1-2.71-2,4.12,4.12,0,0,1-.7-2.89c.2-1.43,1-2.74,3.88-4.52l2.74-1.72c3-1.86,3.52-2.21,4.17-2.56s1.13-.45,1.56,0a3.62,3.62,0,0,1,.4.52c.12.19.23.28.37.2s.09-.25-.09-.53c-.43-.69-1.24-1.86-1.53-2.32s-1.06-1.82-1.7-2.83c-.18-.29-.3-.4-.44-.31s-.1.23,0,.44a4.27,4.27,0,0,1,.41.78c.26.72,0,1.07-.6,1.52s-1.15.78-4.12,2.64l-2.86,1.8c-2.83,1.78-3.83,3.41-4.11,5a7.15,7.15,0,0,0,1.31,5.09,6.66,6.66,0,0,0,3.91,3.1c2.42.72,4.86-.52,7-1.88l2.09-1.32C32.63,323.77,33.17,323.42,33.82,323.07Z"/><path d="M46.63,337.21c-.86-1-1.82-2.11-2.27-2.65s-1.25-1.63-2-2.55c-.21-.27-.35-.36-.47-.26s-.08.24.08.43a5,5,0,0,1,.51.73c.34.68.17,1-.41,1.58s-1,.92-3.75,3.15l-3.14,2.58c-1.65,1.35-3.06,2.51-3.88,3-.57.36-1,.59-1.4.3a3,3,0,0,1-.58-.57c-.18-.21-.29-.23-.38-.16s-.07.27.11.5.7.77,1,1.17.68.79.83,1c.36.44.81,1.1,1.3,1.8s1,1.47,1.54,2.1c2.66,3.23,5.42,4,6.92,4.11a9.26,9.26,0,0,0,6.54-2.18,8.39,8.39,0,0,0,3.14-5.42C50.82,342.3,48.42,339.39,46.63,337.21ZM47.85,344a8,8,0,0,1-3.09,5.34c-1.84,1.51-3.75,2.5-5.65,2.19a7.16,7.16,0,0,1-4.58-3c-1.14-1.38-1.32-2.37-1.17-2.88a5.1,5.1,0,0,1,1.2-1.3c.32-.3,1.69-1.44,3.58-3l2.25-1.85c1.41-1.15,3-2.43,3.58-2.91a.44.44,0,0,1,.53-.09,6.28,6.28,0,0,1,1.06,1A8.81,8.81,0,0,1,47.85,344Z"/><path d="M66.21,361.44a2.73,2.73,0,0,1-.48.69c-.14.15-.19.26-.08.37s.25,0,.34,0,1-.87,1.14-1a12.51,12.51,0,0,1,1.18-.95c.08-.08.13-.17,0-.25a3.47,3.47,0,0,0-.33-.18,8,8,0,0,1-.79-.58c-.33-.28-3.56-3.41-4.08-3.91-.23-.22-.58-.6-1-1s-.86-.87-1.3-1.29c-.24-.24-.39-.31-.5-.2s0,.24.13.42a4.54,4.54,0,0,1,.59.66c.42.64.29,1-.22,1.62s-.93,1-3.37,3.55l-2.83,2.92c-1.48,1.52-2.75,2.83-3.51,3.45-.53.42-1,.71-1.35.46a3.34,3.34,0,0,1-.65-.5c-.19-.19-.31-.2-.39-.12s0,.28.17.48.77.69,1.15,1.05.76.71.94.88c.49.47,1,1,1.64,1.69s1.54,1.59,2.76,2.76c.62.6.76.74,1.3.42a18.46,18.46,0,0,0,2-1.63c.16-.17.29-.3.16-.43s-.21-.07-.42.08a2,2,0,0,1-1.92.52,5.53,5.53,0,0,1-1.72-1.28c-1.66-1.6-1.67-2.1-.6-3.28.45-.5,2-2,2.49-2.57L58,362.92c.1-.1.18-.15.26-.07.39.37,2,1.95,2.26,2.28.53.65.52,1.11.28,1.53-.16.26-.37.47-.51.66a.18.18,0,0,0,0,.29c.14.14.32,0,.45-.18l1.14-1.05c.89-.78,1.21-1,1.3-1.08s.08-.18,0-.24-.23-.06-.47,0-.6-.16-1-.5-2.27-2.14-2.63-2.49c-.1-.09-.05-.17.06-.29l4.07-4.2c.11-.11.19-.13.27-.05.33.31,2,2,2.24,2.3C66.42,360.67,66.39,361,66.21,361.44Z"/><path d="M90.72,378.69c-.88-.67-1.6-1.13-1.8-1.29-.38-.28-1.2-1-2.13-1.71-.27-.21-.48-.34-.59-.19s-.06.22.16.38a3.63,3.63,0,0,1,.87.84c.29.51.18,1-.66,2.12l-6.11,8.38-.09-.07c-.08-.53-.49-5-.76-7.21-.58-4.66-1.07-9.68-1.1-10.08-.06-.57,0-.93-.23-1.08s-.43.08-.71.44l-8.43,10.69c-1.23,1.59-1.71,2.06-2.29,1.85a3.47,3.47,0,0,1-.88-.52c-.18-.14-.31-.18-.4-.07s0,.3.26.48c.93.71,1.82,1.3,2,1.43.34.26,1,.86,2.18,1.75.25.19.44.28.56.14s0-.23-.2-.39a3.32,3.32,0,0,1-.83-.84c-.26-.4-.13-1.05.92-2.51l5.66-7.81.05,0c.06.6.34,4.36.78,7.84.43,3.31.89,7.47,1.18,9.44a1.33,1.33,0,0,0,.3.87c.16.12.36,0,.67-.39l9-11.43c.81-1,1.24-1.29,1.86-1.06a2.3,2.3,0,0,1,.58.36c.22.17.37.19.45.08S91,378.87,90.72,378.69Z"/><path d="M111.3,391.31a10,10,0,0,1-1.41-.69l-7.72-4.52c-.64-.38-1.36-.85-1.89-1.24s-.54-.64-.7-.73-.24,0-.45.24-1.57,1.73-1.76,2.05-.14.34,0,.42.22,0,.36-.11a2.75,2.75,0,0,1,.74-.51c.55-.26,1.07-.09,2.23.54l3,1.62-4.79,8.17c-1.07,1.83-2,3.41-2.58,4.19-.4.54-.77.91-1.21.76a3.66,3.66,0,0,1-.75-.33c-.23-.14-.34-.12-.4,0s0,.27.27.42c.78.46,2,1.12,2.49,1.38s1.74,1.1,3,1.86c.21.12.41.16.49,0s0-.22-.22-.35a9.41,9.41,0,0,1-1-.66c-.54-.42-.4-.93-.13-1.52.4-.91,1.33-2.49,2.4-4.32l4.79-8.17,2.42,1.5c1.71,1.05,1.91,1.92,1.65,2.46L110,394c-.16.31-.18.43,0,.53s.22,0,.36-.22c.3-.52,1.17-1.86,1.41-2.28s.23-.43.09-.51S111.62,391.43,111.3,391.31Z"/><path d="M129.44,400a9.43,9.43,0,0,1-.94-.27c-.4-.16-4.5-2-5.16-2.31-.29-.13-.75-.36-1.28-.62s-1.1-.53-1.66-.78c-.31-.14-.47-.16-.54,0s0,.24.27.34a4,4,0,0,1,.77.43c.62.45.63.86.35,1.6s-.53,1.28-2,4.48l-1.68,3.7c-.87,1.94-1.62,3.6-2.13,4.44-.36.57-.67,1-1.12.88a3.58,3.58,0,0,1-.78-.25c-.25-.11-.36-.08-.4,0s0,.28.31.4,1,.39,1.44.6,1,.41,1.19.51c.61.28,1.24.59,2.11,1s2,1,3.54,1.67c.78.36,1,.44,1.36,0a19.12,19.12,0,0,0,1.32-2.22c.1-.21.17-.37,0-.45s-.23,0-.37.21c-.54.8-1,1.13-1.63,1.14a5.63,5.63,0,0,1-2-.62c-2.11-.95-2.29-1.41-1.68-2.88.26-.62,1.16-2.55,1.48-3.27l.75-1.66c.06-.12.12-.2.22-.15.49.22,2.52,1.16,2.9,1.38.72.43.87.88.78,1.34a6.87,6.87,0,0,1-.26.8.17.17,0,0,0,.1.27c.18.09.29-.15.36-.31s.51-1,.72-1.38c.57-1,.81-1.33.86-1.46s0-.19-.06-.23-.24,0-.46.12a1.54,1.54,0,0,1-1.13-.13c-.49-.17-2.86-1.24-3.31-1.45-.13-.05-.11-.14,0-.29l2.41-5.33c.06-.14.13-.19.24-.14.41.19,2.55,1.2,2.88,1.41,1,.59,1.07.93,1,1.38a2.47,2.47,0,0,1-.22.81c-.08.19-.09.31.05.38a.24.24,0,0,0,.31-.14c.16-.23.62-1.14.74-1.34.5-.94.71-1.15.78-1.3s.06-.2,0-.24A2,2,0,0,0,129.44,400Z"/><path d="M148.24,407.09a10.64,10.64,0,0,0-2.72-1.34c-3-1-5.53.06-6.34,2.46-.6,1.78-.31,3.58,1.41,6.26l.72,1.12c1.3,2,1.28,3.14.91,4.21a2.77,2.77,0,0,1-3.71,1.53,3.12,3.12,0,0,1-2.31-3.25,5.34,5.34,0,0,1,.18-1.18c.06-.17.11-.38-.09-.44s-.31.16-.45.48-.67,1.62-1.07,2.83c-.16.48-.14.61.15.88a7.62,7.62,0,0,0,2.94,1.63,6.41,6.41,0,0,0,3.7.25,4.7,4.7,0,0,0,3.3-3.12c.71-2.08.3-3.9-1.62-6.77l-.44-.66c-1.32-2-1.55-2.92-1.21-3.92a2.4,2.4,0,0,1,3.31-1.4,2.86,2.86,0,0,1,2,1.87,2.78,2.78,0,0,1,.07,1.63c-.09.26-.07.41.08.47s.3-.1.46-.58c.58-1.71.88-2.31,1-2.6S148.42,407.2,148.24,407.09Z"/><path d="M181.92,414.53a1.23,1.23,0,0,0-.38.08,4.37,4.37,0,0,1-.93-.07c-.51-.06-5-.83-5.88-1-.31-.05-.82-.16-1.4-.28l-1.8-.33c-.33-.06-.52,0-.55.14s.13.21.35.25a4.91,4.91,0,0,1,.86.21c.71.29.82.68.74,1.46s-.19,1.38-.77,4.84l-.68,4c-.37,2.19-.66,3.9-.93,4.83-.2.65-.4,1.13-.86,1.15a3.59,3.59,0,0,1-.82-.05c-.24,0-.34,0-.36.13s.12.25.43.3c.84.15,2.26.32,2.84.42s2,.4,3.37.64c.34,0,.51,0,.53-.15s-.06-.2-.35-.24-.79-.19-1.09-.28c-.66-.21-.71-.73-.66-1.4,0-1,.34-2.69.71-4.88l.31-1.84c0-.16.08-.2.19-.18.38.06,2.74.46,3.28.63a1.32,1.32,0,0,1,1,1,3.1,3.1,0,0,1,0,.73c0,.16,0,.32.12.35s.26-.19.3-.4.24-1.2.37-1.65c.18-.69.39-1.24.41-1.38s0-.21-.1-.23-.19.06-.32.18a1.17,1.17,0,0,1-1,.25c-.32,0-.63-.08-1-.15L175,421.2c-.14,0-.15-.09-.12-.23l1-5.69c0-.25.12-.31.25-.29l3.42.65a1.63,1.63,0,0,1,1.35.93,2.34,2.34,0,0,1,0,.89c0,.26,0,.38.16.4s.23-.1.28-.28.36-1.6.42-1.82c.17-.58.33-.84.35-1S182,414.54,181.92,414.53Z"/><path d="M201.38,416.17c-6.77-.33-9.57,4.64-9.77,8.59s2.18,9.17,8.66,9.48c5.73.28,9.54-3.72,9.8-9S207,416.44,201.38,416.17Zm5.49,9.77c-.32,6.67-4,7.27-5.6,7.2-4.33-.21-6.74-4.15-6.51-8.95.29-5.74,3.31-7.07,5.91-6.95C204.37,417.42,207.12,420.77,206.87,425.94Z"/><path d="M239.24,432.36a2.85,2.85,0,0,1-.64,0A4.43,4.43,0,0,1,236,431c-1.44-1.33-3.14-3.26-5.34-5.69,2.13-2.06,2.71-3.68,2.58-5.38a4,4,0,0,0-1.76-3,7.08,7.08,0,0,0-4.22-.68c-.7.05-2.41.24-3.18.3-.47,0-1.9.08-3.09.16-.34,0-.49.09-.48.26s.15.19.4.17a4.16,4.16,0,0,1,.88,0c.76.1,1,.46,1.07,1.24s.15,1.37.41,4.87l.3,4.06c.16,2.11.3,3.93.26,4.91,0,.67-.12,1.19-.56,1.32a4.09,4.09,0,0,1-.8.15c-.28,0-.36.09-.35.21s.17.22.47.2c.9-.07,2.31-.25,2.74-.28s2-.08,3.32-.18c.29,0,.44-.1.43-.26s-.1-.18-.28-.17a10.42,10.42,0,0,1-1.11,0c-.69,0-.86-.53-1-1.2-.18-1-.32-2.78-.48-4.92l0-.32c0-.14.05-.19.16-.2l2-.1a.48.48,0,0,1,.42.13c.31.33,1.47,1.81,2.47,3,1.39,1.68,2.33,2.7,3.34,3.15A4.43,4.43,0,0,0,237,433l2.14-.16c.27,0,.43-.08.41-.26S239.42,432.35,239.24,432.36ZM228,425.31a5.48,5.48,0,0,1-1.73-.1c-.16-.06-.22-.14-.23-.4l-.53-7c0-.18,0-.28.18-.33a4.9,4.9,0,0,1,1.19-.19c1.33-.1,3.52.69,3.76,4a4.1,4.1,0,0,1-1.07,3.55A2.18,2.18,0,0,1,228,425.31Z"/><path d="M257.41,411.7a3.79,3.79,0,0,0-.58.22,9.78,9.78,0,0,1-1.51.4l-8.8,1.64a21.3,21.3,0,0,1-2.24.3,4.51,4.51,0,0,1-1-.1c-.14,0-.18.18-.19.49s-.05,2.33,0,2.69.11.36.27.33.18-.13.19-.32a2.68,2.68,0,0,1,.23-.86c.24-.57.75-.78,2-1.06l3.3-.71,1.73,9.31c.39,2.09.72,3.88.79,4.86,0,.67,0,1.19-.41,1.36a3.25,3.25,0,0,1-.79.24c-.26.05-.34.14-.32.25s.2.2.49.15c.89-.17,2.27-.5,2.78-.59s2-.31,3.5-.58c.25-.05.42-.15.38-.31s-.14-.16-.38-.12a7.75,7.75,0,0,1-1.15.12c-.69,0-.91-.44-1.1-1.06-.29-1-.62-2.75-1-4.84l-1.74-9.31,2.81-.45c2-.32,2.71.2,2.86.78l.07.25c.09.33.15.44.33.41s.15-.17.13-.4c-.11-.59-.33-2.17-.42-2.65S257.57,411.67,257.41,411.7Z"/><path d="M283.16,411.47c-1.05-3.35-1.24-4-1.42-4.69s-.15-1.21.4-1.5a3.56,3.56,0,0,1,.61-.27c.25-.08.37-.16.32-.32s-.21-.15-.51-.05c-.84.26-2.18.75-2.44.83,0,0-1.4.37-2.5.72-.3.09-.44.18-.39.33s.19.16.43.09a4,4,0,0,1,.79-.18c.76-.07,1.05.23,1.33,1s.45,1.31,1.5,4.65l.87,2.76c.71,2.27,1.27,4.27.46,5.85a4.34,4.34,0,0,1-2.6,2.13,4.13,4.13,0,0,1-3-.06c-1.33-.55-2.38-1.7-3.38-4.89l-1-3.09c-1.05-3.35-1.24-4-1.42-4.68s-.14-1.22.4-1.51a3.49,3.49,0,0,1,.61-.26c.21-.07.33-.15.28-.31s-.21-.15-.54-.05c-.77.25-2.11.74-2.63.9s-2,.56-3.17.92c-.32.1-.46.19-.41.35s.19.16.43.08a5.06,5.06,0,0,1,.86-.2c.76-.06,1.05.23,1.32,1s.46,1.31,1.51,4.66l1,3.21c1,3.2,2.33,4.57,3.75,5.24a7.15,7.15,0,0,0,5.26,0,6.65,6.65,0,0,0,4-3c1.32-2.16.74-4.83,0-7.28Z"/><path d="M308.42,396.06c-.53-1.19-.57-1.7-.08-2.14a2.47,2.47,0,0,1,.59-.35c.24-.11.34-.23.28-.36s-.29-.09-.56,0c-1,.47-1.75.89-2,1-.43.2-1.44.6-2.51,1.1-.3.15-.52.27-.44.44s.17.15.42,0a3.65,3.65,0,0,1,1.14-.38c.59,0,1,.29,1.58,1.56l4.6,9.3-.1,0c-.51-.17-4.68-1.89-6.74-2.66-4.41-1.63-9.09-3.52-9.46-3.68-.53-.21-.84-.4-1.06-.29s-.13.41.06.83l5.59,12.41c.83,1.83,1,2.47.58,2.89a4.29,4.29,0,0,1-.87.54c-.21.09-.31.19-.25.32s.28.12.55,0c1.06-.5,2-1,2.18-1.1.39-.18,1.24-.5,2.57-1.13.28-.13.45-.26.37-.43s-.2-.11-.43,0a3.64,3.64,0,0,1-1.13.35c-.48.05-1-.37-1.8-2l-4.32-8.61.07,0c.55.22,4,1.71,7.31,2.93s7,2.67,8.92,3.32a1.35,1.35,0,0,0,.91.13c.19-.08.18-.31,0-.77Z"/><path d="M340.2,394.17a4.93,4.93,0,0,1-.86.42c-.46.16-1.19.23-3-1.07-3.09-2.2-11.06-8.11-12.2-8.89-.47-.33-.7-.44-.87-.33s-.17.41-.05,1.12L326,400.57c.23,1.21.28,2.11-.52,2.78a6.41,6.41,0,0,1-.57.41c-.15.1-.21.18-.13.3s.23.13.48,0c1-.63,2-1.35,2.22-1.48.6-.37,1.46-.83,2.07-1.21.21-.14.3-.25.2-.4s-.15-.12-.38,0l-.29.18c-.59.37-.93.23-1.15-.13a4.84,4.84,0,0,1-.46-1.37l-.65-3.33c0-.14,0-.2.07-.26l4.27-2.68a.23.23,0,0,1,.28,0l4.06,3.07a.38.38,0,0,1,.11.56c-.18.14-.23.22-.16.34s.32,0,.68-.2c1.55-.92,3-1.8,3.64-2.24s.85-.59.75-.74S340.35,394.07,340.2,394.17Zm-10-1.55-3.52,2.21c-.07.05-.13,0-.16-.09l-1.25-5.9c0-.09,0-.21,0-.25s.13.05.2.12l4.75,3.73S330.3,392.56,330.2,392.62Z"/><path d="M360,375.05c-.75-.88-1.52-1.67-2.17-2.42L355,369.39c-2.29-2.66-2.71-3.15-3.16-3.74s-.61-1.06-.22-1.54a3.59,3.59,0,0,1,.45-.49c.21-.17.28-.3.17-.42s-.25-.05-.49.15c-.67.58-1.7,1.56-2.11,1.91s-1.57,1.26-2.48,2c-.26.22-.35.36-.24.49s.23.07.42-.1a4.63,4.63,0,0,1,.72-.52c.67-.36,1-.2,1.59.36s.94,1,3.23,3.69l4.32,5c2.95,3.43,4.48,5.16,4.33,7.63a4.52,4.52,0,0,1-.25,1.37c-.15.41-.18.56-.1.64a.18.18,0,0,0,.25,0,1,1,0,0,0,.26-.4,11.12,11.12,0,0,0,.46-1.2,8.7,8.7,0,0,0,.07-5.81A12.71,12.71,0,0,0,360,375.05Z"/><path d="M376.14,352.16l-1.78-1.7c-2.54-2.43-3-2.87-3.51-3.42s-.72-1-.38-1.51a3.1,3.1,0,0,1,.4-.52c.19-.2.25-.33.13-.44s-.26,0-.47.2c-.61.64-1.55,1.71-1.73,1.91,0,0-1.05,1-1.85,1.83-.22.23-.29.38-.18.49s.25.05.42-.13a3.64,3.64,0,0,1,.61-.54c.63-.43,1-.31,1.62.2s1,.93,3.58,3.35l2.09,2c1.72,1.65,3.17,3.13,3.23,4.9a4.33,4.33,0,0,1-1.25,3.12,4.06,4.06,0,0,1-2.63,1.39c-1.44.16-2.91-.34-5.33-2.65l-2.34-2.23c-2.54-2.42-3-2.87-3.51-3.41s-.71-1-.38-1.52a3.62,3.62,0,0,1,.41-.52c.15-.16.21-.29.1-.4s-.26,0-.5.21c-.56.59-1.49,1.67-1.87,2.06s-1.5,1.47-2.33,2.34c-.23.24-.31.39-.19.5s.24,0,.42-.13a4.54,4.54,0,0,1,.65-.59c.64-.43,1-.31,1.63.2s1,.93,3.57,3.35l2.44,2.33c2.42,2.31,4.25,2.87,5.82,2.77a7.16,7.16,0,0,0,4.62-2.53,6.65,6.65,0,0,0,2-4.54C379.8,356,378,353.93,376.14,352.16Z"/><path d="M390.58,334c-1.53-2.69-2.16-3.93-3.36-5.94-.81-1.38-.92-1.89-.91-2.25a1.94,1.94,0,0,1,.45-1.05c.14-.18.18-.31.05-.41s-.27,0-.45.25c-.41.54-1,1.43-1.23,1.73s-.8,1-1.48,1.85c-.26.35-.35.54-.2.65s.26,0,.38-.19a2.82,2.82,0,0,1,.64-.65.41.41,0,0,1,.52,0,2.63,2.63,0,0,1,.56.67c.89,1.36,5.05,8.18,6.49,10.49l-.05.07L381.28,336a7.11,7.11,0,0,1-1.73-.66.56.56,0,0,1-.25-.47,1.58,1.58,0,0,1,.4-.8c.12-.17.17-.3,0-.4s-.32.07-.48.29c-.68.9-1.28,1.81-1.62,2.26-.48.63-1.31,1.61-2,2.57-.21.27-.34.48-.19.59s.21.07.33-.09a3.43,3.43,0,0,1,.61-.64c.67-.51,1.1-.67,2.43-.32l14.69,4c1.12.31,1.46.39,1.64.16s0-.58-.74-1.86C393.76,339.56,392.39,337.19,390.58,334Z"/><path d="M412.39,315a5,5,0,0,1-.57.76c-.35.34-1,.74-3.19.39-3.75-.6-13.52-2.32-14.88-2.52-.57-.08-.82-.08-.93.1s0,.44.46,1l9.27,12.3c.75,1,1.2,1.76.78,2.72-.08.16-.22.45-.33.62s-.1.25,0,.33.27,0,.42-.25c.61-1,1.2-2.1,1.33-2.31.36-.6.93-1.39,1.3-2,.13-.21.16-.35,0-.45s-.2,0-.34.2l-.17.28c-.37.6-.73.62-1.09.4a4.55,4.55,0,0,1-1-1l-2.07-2.69c-.09-.11-.11-.17-.05-.27l2.62-4.3a.22.22,0,0,1,.26-.11l5,.94a.38.38,0,0,1,.35.45c-.1.2-.11.3,0,.37s.28-.14.51-.48c1-1.52,1.84-2.93,2.27-3.62s.5-.91.34-1S412.48,314.87,412.39,315Zm-9.64,3.07-2.16,3.55c0,.07-.12.05-.19,0l-3.74-4.72c-.07-.07-.14-.17-.11-.23s.15,0,.24,0l5.91,1.23C402.77,317.94,402.81,318,402.75,318.1Z"/><path d="M420.66,298.94c-.11-.05-.22,0-.33.24a8.16,8.16,0,0,1-.58,1c-.38.57-.9.47-1.51.25-.94-.33-2.58-1.13-4.5-2.05l-8.52-4.12,1.3-2.54c.92-1.79,1.76-2.05,2.32-1.83l.24.09c.32.13.45.14.53,0s-.05-.22-.25-.34c-.54-.26-1.94-1-2.38-1.23s-.45-.19-.52-.05-.07.27-.16.6a10,10,0,0,1-.57,1.46l-3.9,8.05a21.68,21.68,0,0,1-1.09,2c-.29.48-.59.59-.67.75s0,.24.28.43,1.85,1.43,2.18,1.59.35.12.42,0,0-.23-.14-.35a2.53,2.53,0,0,1-.56-.7c-.31-.52-.18-1.06.35-2.26L404,296.8l8.53,4.12c1.92.93,3.56,1.72,4.38,2.24.58.36,1,.7.86,1.15a3.78,3.78,0,0,1-.27.77c-.12.24-.09.36,0,.41s.28-.05.4-.31c.4-.81,1-2.12,1.18-2.59s1-1.82,1.61-3.17C420.79,299.2,420.8,299,420.66,298.94Z"/></g></g></svg>