<svg xmlns="http://www.w3.org/2000/svg" xmlns:xlink="http://www.w3.org/1999/xlink" viewBox="0 0 529 529"><defs><style>.cls-1{fill:url(#Новый_образец_градиента_18);}.cls-2{fill:url(#Новый_образец_градиента_1);}.cls-3{fill:url(#Новый_образец_градиента_18-2);}.cls-4{fill:url(#Новый_образец_градиента_1-2);}.cls-5{fill:url(#Новый_образец_градиента_18-3);}.cls-6{fill:url(#linear-gradient);}.cls-7{fill:#fff;}</style><linearGradient id="Новый_образец_градиента_18" x1="470.82" y1="469.64" x2="109.86" y2="77.53" gradientUnits="userSpaceOnUse"><stop offset="0.01" stop-color="#717171"/><stop offset="0.38" stop-color="#777"/><stop offset="0.72" stop-color="#fff"/><stop offset="0.77" stop-color="#eaeaea"/><stop offset="0.87" stop-color="#b3b3b3"/><stop offset="0.97" stop-color="#767676"/></linearGradient><linearGradient id="Новый_образец_градиента_1" x1="49.28" y1="247.79" x2="478.81" y2="248.7" gradientUnits="userSpaceOnUse"><stop offset="0" stop-color="#8c6034"/><stop offset="0.16" stop-color="#ad8240"/><stop offset="0.51" stop-color="#ffd75f"/><stop offset="0.62" stop-color="#ebc055"/><stop offset="1" stop-color="#a67033"/></linearGradient><linearGradient id="Новый_образец_градиента_18-2" x1="156.51" y1="248.25" x2="377.29" y2="248.25" xlink:href="#Новый_образец_градиента_18"/><linearGradient id="Новый_образец_градиента_1-2" x1="168.97" y1="248.25" x2="364.83" y2="248.25" xlink:href="#Новый_образец_градиента_1"/><linearGradient id="Новый_образец_градиента_18-3" x1="403.01" y1="248.25" x2="94.28" y2="248.25" xlink:href="#Новый_образец_градиента_18"/><linearGradient id="linear-gradient" x1="403.01" y1="248.25" x2="94.28" y2="248.25" gradientUnits="userSpaceOnUse"><stop offset="0" stop-color="#5c5c5c"/><stop offset="0.02" stop-color="#6c6c6c"/><stop offset="0.11" stop-color="#a5a5a5"/><stop offset="0.15" stop-color="#bcbcbc"/><stop offset="0.38" stop-color="#272727"/><stop offset="0.57" stop-color="#666"/><stop offset="0.72" stop-color="#d6d6d6"/><stop offset="0.74" stop-color="#c1c1c1"/><stop offset="0.79" stop-color="#8a8a8a"/><stop offset="0.86" stop-color="#323232"/><stop offset="0.87" stop-color="#242424"/><stop offset="1" stop-color="#474747"/></linearGradient></defs><title>white text</title><g id="Layer_2" data-name="Layer 2"><g id="Layer_1-2" data-name="Layer 1"><rect width="529" height="529"/><path class="cls-1" d="M264.07,446.92c0-.81.1-20.05,8.48-28a25.68,25.68,0,0,1,6.13-4.09c-3.53.27-7.07.41-10.59.43-6.88,12.1-18.18,16.39-25.72,19.25-1,.39-2,.75-2.87,1.11a60.71,60.71,0,0,0-13.24,7.92L223,446.24l.84-4.23c.16-.8,4-19.72,13.78-25.64a25.71,25.71,0,0,1,6.74-2.68q-5.15-.74-10.19-1.78c-9.23,10.39-21.28,12.15-29.32,13.32l-2.76.42a58.41,58.41,0,0,0-14.62,5l-3.82,2,1.7-4c.32-.76,7.94-18.47,18.76-22.21a24.64,24.64,0,0,1,7.15-1.17q-4.91-1.83-9.71-4c-8.66,6.42-17.7,7.18-23.81,7.18-2.56,0-5-.15-7.07-.28-1.16-.07-2.24-.14-3.25-.18-.51,0-1,0-1.52,0A63,63,0,0,0,152,409.76l-4.09,1.06,2.45-3.5c.47-.67,11.55-16.29,22.83-17.69a18.49,18.49,0,0,1,2.13-.12,30.19,30.19,0,0,1,5.29.53c-3-1.9-5.92-3.9-8.76-6a34.27,34.27,0,0,1-14.67,3.18c-6.58,0-12.42-1.67-17.11-3-1.08-.31-2.1-.6-3-.84a61.81,61.81,0,0,0-14.17-1.6c-.75,0-1.19,0-1.2,0l-4.17.14,3.07-2.88c.55-.51,13.45-12.48,24.58-12.48.47,0,.94,0,1.41.07a25.84,25.84,0,0,1,7.12,2c-2.53-2.48-5-5-7.31-7.65a35.41,35.41,0,0,1-7.22.75c-9.76,0-17.7-4.14-23.5-7.16-1.16-.61-2.24-1.17-3.25-1.66A61.39,61.39,0,0,0,97.68,348l-4.14-.76,3.64-2.15c.5-.3,12.36-7.26,22.63-7.26a17.82,17.82,0,0,1,5.28.74,25.37,25.37,0,0,1,6.59,3.39c-2-2.95-3.83-6-5.6-9.05-13.69,0-23-7.94-29.2-13.2-.83-.7-1.61-1.37-2.35-2A59,59,0,0,0,81.16,310l-4-1.56,4-1.4a60.84,60.84,0,0,1,17.51-3.08c4.5,0,8.21.83,11,2.46a26,26,0,0,1,5.79,4.72q-2-5-3.64-10c-13.27-2.89-20.71-12.48-25.67-18.88-.73-.94-1.41-1.82-2.06-2.62A61.13,61.13,0,0,0,72.59,269L69,266.63l4.26-.47a60.43,60.43,0,0,1,6.18-.29c7,0,16.47,1,22,5.85a26.55,26.55,0,0,1,4.62,5.81q-.93-5.31-1.5-10.62c-12.49-5.78-17.86-16.86-21.44-24.25-.45-.95-.89-1.85-1.31-2.67a59.24,59.24,0,0,0-9.15-12.65l-3-3.13,4.3.45c.79.08,19.46,2.1,26.31,11.44a25.49,25.49,0,0,1,3.41,6.6c.12-3.56.34-7.13.68-10.67-11.06-8.35-14.07-20.34-16.08-28.32-.26-1-.49-2-.73-2.86a59.87,59.87,0,0,0-6.34-14.39l-2.31-3.66,4.07,1.31c.76.24,18.69,6.11,23.42,16.71a26.78,26.78,0,0,1,2,7.36c.84-3.47,1.8-6.93,2.86-10.35-9-10.35-9.56-22.55-9.92-30.68,0-1.2-.1-2.33-.17-3.36a61.89,61.89,0,0,0-3.24-15.42l-1.5-4.07,3.7,2.14c.69.41,17,10,19.46,21.34a28,28,0,0,1,.39,7.72q2.31-4.87,4.94-9.59c-6.9-12.37-4.75-24.59-3.32-32.74.17-1,.33-1.92.47-2.8a69.5,69.5,0,0,0-.15-15.83l-.6-4.29,3.16,2.9c.59.54,14.57,13.48,14.72,25a27.78,27.78,0,0,1-1.2,7.71q3.3-4.35,6.84-8.42c-4.14-13.15.21-24.58,3.1-32.2.43-1.13.83-2.19,1.18-3.17a60.25,60.25,0,0,0,3.1-15.41l.23-4.37,2.55,3.51c.47.66,11.69,16.26,9.41,27.64a27.21,27.21,0,0,1-2.71,7.2q4.07-3.5,8.39-6.75c-1.5-13.74,5.12-23.94,9.53-30.74.67-1,1.29-2,1.84-2.88a63,63,0,0,0,6.2-14.55l1.13-4.21,1.76,4c.33.75,8.06,18.4,3.49,29.15a26.38,26.38,0,0,1-4.07,6.43c3.1-1.7,6.27-3.3,9.48-4.79,1.4-13.88,10-22.46,15.75-28.18.82-.82,1.59-1.59,2.29-2.31a62.84,62.84,0,0,0,9-12.82l2-3.85.91,4.24c.17.79,4.13,19.61-2.42,29.11a26.83,26.83,0,0,1-5.35,5.43c3.43-1,6.89-1.92,10.34-2.69,4.26-13.39,14.51-20,21.34-24.41.87-.56,1.7-1.09,2.45-1.6A61.05,61.05,0,0,0,267,48.55l2.7-3.37,0,4.35c0,.82.05,20.06-8.32,28A26.48,26.48,0,0,1,255,81.77q5.32-.39,10.64-.44C272.58,69,284,64.81,291.67,62c1-.36,1.86-.69,2.69-1a61.48,61.48,0,0,0,13.37-8.06l3.36-2.74-.89,4.3c-.16.8-4.17,19.71-13.92,25.63a25.91,25.91,0,0,1-7.1,2.78c3.54.49,7.07,1.1,10.55,1.82,9.14-10.27,21-12.11,28.89-13.34,1.17-.18,2.28-.35,3.3-.54a61.72,61.72,0,0,0,14.67-4.9L350.41,64l-1.73,4c-.32.75-8.09,18.31-18.9,22a25.85,25.85,0,0,1-7.42,1.2c3.33,1.22,6.62,2.57,9.87,4C340.92,88.74,350,88,356.14,88c2.56,0,5,.15,7.08.29,1.16.07,2.25.14,3.25.18.72,0,1.4,0,2.08,0a56.56,56.56,0,0,0,13.27-1.78L386,85.55l-2.53,3.6c-.47.66-11.55,16.29-22.82,17.69a18.61,18.61,0,0,1-2.13.12,30.23,30.23,0,0,1-5.53-.58c3,1.93,6,4,8.91,6.08a35.45,35.45,0,0,1,14.89-3.16c6.7,0,12.57,1.67,17.29,3,1,.28,1.88.54,2.74.77a54.31,54.31,0,0,0,13.46,1.62c1.16,0,1.86,0,1.88,0l4.28-.23-3.16,3c-.54.5-13.44,12.47-24.45,12.47-.47,0-.93,0-1.39-.06a26.6,26.6,0,0,1-7.54-2.13c2.65,2.59,5.21,5.25,7.64,8a34.57,34.57,0,0,1,7.48-.83c9.93,0,17.94,4.33,23.79,7.48.95.52,1.84,1,2.68,1.43a59.41,59.41,0,0,0,14.78,4.74l4.25.7-3.72,2.22c-.5.3-12.52,7.4-22.74,7.4a17.19,17.19,0,0,1-5.18-.74,27.1,27.1,0,0,1-6.83-3.61c2,3,3.92,6.11,5.74,9.27,13.53,0,22.87,7.85,29.06,13,.92.77,1.78,1.49,2.59,2.13a62,62,0,0,0,13.4,7.79l3.94,1.6-4,1.36a61.92,61.92,0,0,1-17.41,3c-4.61,0-8.39-.84-11.24-2.5a26.05,26.05,0,0,1-5.88-4.86q2,5.1,3.73,10.31c13.12,2.82,20.61,12.27,25.62,18.57.79,1,1.53,1.94,2.24,2.79a59.48,59.48,0,0,0,11.43,10.53l3.53,2.38-4.2.5a62.14,62.14,0,0,1-6.53.32c-6.86,0-16.16-1-21.51-5.9a25.81,25.81,0,0,1-4.79-6q.94,5.37,1.53,10.72C441.62,235.11,447,246,450.6,253.3c.56,1.13,1.08,2.19,1.59,3.15a65.2,65.2,0,0,0,9,12.86l2.87,3.07L460,272c-.79-.08-19.46-2.1-26.32-11.44a27.33,27.33,0,0,1-3.4-6.89c-.11,3.62-.33,7.24-.67,10.81,11.1,8.3,14.06,20.22,16,28.16.26,1.08.51,2.08.77,3a63.34,63.34,0,0,0,6.34,14.4l2.27,3.64-4-1.29c-.76-.25-18.7-6.11-23.42-16.71a27.72,27.72,0,0,1-1.93-7.45c-.85,3.54-1.83,7.07-2.91,10.56,9.26,10.49,9.7,23,10,31.3,0,1,.06,1.92.11,2.8a67.54,67.54,0,0,0,3.38,15.39l1.48,4.08L434,350.16c-.69-.4-17-10.1-19.58-21.46a27.1,27.1,0,0,1-.4-7.65q-2.33,4.89-5,9.62c6.81,12.08,4.83,24.26,3.51,32.39-.19,1.12-.36,2.18-.49,3.15a63.35,63.35,0,0,0,0,15.72l.59,4.24-3.14-2.84c-.6-.54-14.58-13.34-14.73-25a26.91,26.91,0,0,1,1.19-7.63q-3.26,4.29-6.73,8.31c4.28,13.29-.26,24.85-3.29,32.56-.39,1-.77,2-1.1,2.86a61,61,0,0,0-3.09,15.39l-.23,4.4L379,410.65c-.47-.66-11.54-16.25-9.4-27.61a27.34,27.34,0,0,1,2.77-7.2q-4.06,3.51-8.32,6.73c1.39,13.79-5.27,24.08-9.71,30.94-.65,1-1.25,1.94-1.79,2.82a61.28,61.28,0,0,0-6.21,14.4L345.16,435l-1.76-4c-.33-.75-7.91-18.38-3.49-29.11a26.68,26.68,0,0,1,4-6.31q-4.65,2.55-9.46,4.78c-1.45,13.88-10.05,22.49-15.79,28.24-.79.8-1.55,1.55-2.23,2.27a59,59,0,0,0-9,12.8l-1.95,3.91-.92-4.28c-.18-.8-4.13-19.62,2.57-29.27a25.09,25.09,0,0,1,5-5.22c-3.31,1-6.65,1.84-10,2.6-4.23,13.21-14.52,19.82-21.38,24.22-.92.59-1.78,1.15-2.57,1.68a60.84,60.84,0,0,0-11.4,10.65l-2.73,3.41Zm-24.39-76.84a66.47,66.47,0,0,0,9.59,12.41c.79.76,1.66,1.56,2.6,2.42,5.8,5.31,13.68,12.52,16.36,24.56a154.32,154.32,0,0,0,17.46-1.16c-5.14-1.47-10.31-3.55-13.67-6.43-8.69-7.48-9.51-26.71-9.54-27.53l-.16-4.32,2.84,3.21A62.69,62.69,0,0,0,277,383.32c.83.52,1.75,1.05,2.73,1.63,6.46,3.77,16.12,9.42,21.3,20.72a154.7,154.7,0,0,0,16.87-4.86c-6.39-.38-11.33-1.49-14.72-3.34-10.07-5.45-14.79-24.07-15-24.86l-1-4.18,3.43,2.51a63.43,63.43,0,0,0,13.68,7.35c.86.3,1.81.61,2.82.93,7.14,2.31,17.81,5.76,25.2,15.75a159.35,159.35,0,0,0,15.6-8.35,54.25,54.25,0,0,1-8.19.71,25.07,25.07,0,0,1-6.92-.85c-11-3.12-19.46-20.39-19.81-21.12l-1.89-3.9,3.89,1.76a61.88,61.88,0,0,0,14.95,4.32c.81.09,1.71.17,2.67.26,7.49.69,18.69,1.71,28.09,10.08a161.3,161.3,0,0,0,13.53-11.43c-4.52,1.73-9.38,3.08-13.48,3.08-.42,0-.83,0-1.24,0-11.42-.78-23.22-15.81-23.72-16.45l-2.67-3.43,4.2.91a61.9,61.9,0,0,0,11.59,1.18c1.37,0,2.68-.06,3.9-.17.95-.09,2-.2,3-.33a87.11,87.11,0,0,1,10.11-.73,37.82,37.82,0,0,1,19,4.67,160.86,160.86,0,0,0,10.74-13.9c-4.47,2.9-9.35,5.4-13.58,6a15.79,15.79,0,0,1-2.08.14c-10.9,0-23.81-10.85-24.35-11.31l-3.28-2.78h4.26a58.58,58.58,0,0,0,15.21-2.3c1-.3,2.06-.65,3.18-1,5.1-1.69,11.44-3.79,18.77-3.79a35.42,35.42,0,0,1,10.28,1.5,162.71,162.71,0,0,0,7.75-15.89c-3.79,3.81-8.09,7.32-12.16,8.85a18.09,18.09,0,0,1-6.25,1c-10,0-21.35-6-21.83-6.27l-3.76-2,4.15-.93A61,61,0,0,0,386.41,307c.84-.48,1.74-1,2.69-1.6,6.1-3.67,14.44-8.7,25.24-8.7,1,0,2,0,3,.13a164.41,164.41,0,0,0,4.29-17.1c-2.91,4.48-6.37,8.79-10,11.15-3.19,2-7.53,3-13,3a64.16,64.16,0,0,1-15.7-2.2l-4.13-1.18,3.92-1.78a58.71,58.71,0,0,0,13-8.34c.7-.63,1.45-1.34,2.24-2.09,5.82-5.48,13.71-12.92,26-14.46.48-5.15.72-10.34.72-15.46,0-.72,0-1.44,0-2.18-1.94,5-4.44,9.91-7.53,12.95-6.21,6.11-18.34,7-25,7-1.76,0-2.84-.06-2.84-.06l-4.31-.28,3.5-2.58a58,58,0,0,0,11-10.92c.52-.71,1.06-1.49,1.63-2.31,4.36-6.27,10.89-15.63,22.59-19.85a164.57,164.57,0,0,0-2.91-17.5c-.89,5.31-2.34,10.69-4.72,14.35-6.41,9.66-25.07,12.57-25.86,12.69l-4.25.64,2.88-3.26a61.68,61.68,0,0,0,8.6-13.1c.42-.92.86-1.94,1.33-3,3-6.92,7.43-17.25,17.84-23.64a163.31,163.31,0,0,0-6.36-16.45c.21,5.38-.12,10.95-1.72,15-4.27,10.76-21.9,17.51-22.65,17.79l-4,1.5,2.09-3.76a62.75,62.75,0,0,0,5.64-14.54c.24-1,.47-2.16.72-3.36,1.58-7.81,3.74-18.41,12.6-26.88a163.12,163.12,0,0,0-9.65-14.87c1.34,5.27,2.16,10.85,1.38,15.21-2,11.52-17.86,21.82-18.54,22.25l-3.63,2.33,1.35-4.16a61.74,61.74,0,0,0,2.68-15.54c0-.82,0-1.74,0-2.7-.13-7.71-.32-19.23,6.85-29.7-1.64-1.85-3.21-3.54-4.78-5.15-2.41-2.46-5-4.91-7.71-7.33,2.39,4.88,4.36,10.17,4.54,14.6.31,11.7-13.08,25.23-13.65,25.8l-3.06,3.06.45-4.35a65.65,65.65,0,0,0-.57-15.85c-.18-.92-.4-1.93-.63-3-1.63-7.44-4.05-18.57.77-30.07a156.68,156.68,0,0,0-14.81-9.6c3.32,4.26,6.3,9,7.38,13.39,2.75,11.22-7.6,27.4-8,28.08l-2.36,3.66-.46-4.36a62.26,62.26,0,0,0-3.8-15.26c-.38-.92-.81-1.9-1.27-2.94-3.06-7-7.63-17.33-5.32-29.57a157.79,157.79,0,0,0-16.37-6.21c4.09,3.47,8,7.5,9.82,11.48,5,10.42-1.84,28.37-2.14,29.13l-1.55,4-1.34-4.1a64.16,64.16,0,0,0-6.91-14.11c-.55-.82-1.17-1.68-1.83-2.6-4.37-6.11-10.91-15.24-11.17-27.74a155.29,155.29,0,0,0-17.07-2.53c4.66,2.51,9.2,5.6,11.82,9.06,7,9.18,3.91,28.15,3.77,28.95l-.72,4.32-2.13-3.81A60.51,60.51,0,0,0,284.59,114c-.68-.64-1.42-1.31-2.21-2-5.55-5-13.83-12.55-16.71-24.82a154.79,154.79,0,0,0-17.1,1.11c5,1.46,10,3.51,13.26,6.34,8.83,7.46,9.65,26.71,9.68,27.52l.16,4.33-2.84-3.21a61.37,61.37,0,0,0-12-10.08c-.85-.53-1.78-1.07-2.77-1.64-6.39-3.73-16-9.3-21.11-20.63a153.54,153.54,0,0,0-16.79,4.78c6.26.39,11.12,1.51,14.48,3.33,10.05,5.45,14.92,24.07,15.13,24.86l1.08,4.22-3.47-2.54a59.12,59.12,0,0,0-13.66-7.2c-1-.36-2.08-.72-3.23-1.09-7.46-2.46-17.57-5.8-24.83-15.73a160.13,160.13,0,0,0-15.6,8.32,54.71,54.71,0,0,1,8.12-.69,24.6,24.6,0,0,1,6.87.85c11,3.27,19.45,20.39,19.8,21.11l1.92,3.91-3.92-1.76a58,58,0,0,0-14.78-4.18c-1-.12-2-.23-3.13-.34-7.43-.77-18.51-1.93-27.75-10.1a159.53,159.53,0,0,0-13.37,11.31c4.45-1.69,9.23-3,13.28-3,.42,0,.83,0,1.23,0,11.42.77,23.23,15.81,23.73,16.45l2.6,3.34-4.11-.82a69.23,69.23,0,0,0-12-1.14c-1.14,0-2.29,0-3.43.13s-2.11.22-3.29.35a86.24,86.24,0,0,1-10.17.75,37.1,37.1,0,0,1-18.81-4.65,160.16,160.16,0,0,0-10.7,13.81c4.42-2.89,9.27-5.37,13.48-6a14.82,14.82,0,0,1,2.1-.14c11,0,23.94,10.85,24.49,11.31l3.28,2.78h-4.27a58.26,58.26,0,0,0-15.2,2.3c-.87.28-1.8.6-2.79.94-5.15,1.78-11.56,4-19,4a34.92,34.92,0,0,1-10.53-1.61,168.38,168.38,0,0,0-7.81,16c3.8-3.82,8.11-7.33,12.21-8.81a18.52,18.52,0,0,1,6.49-1.05c10,0,21.24,5.93,21.71,6.18l3.79,2L162,184a57.73,57.73,0,0,0-14.5,5.6c-.86.49-1.76,1-2.72,1.6-6.08,3.61-14.4,8.56-25.12,8.56-1,0-2-.05-3.06-.14a165.06,165.06,0,0,0-4.33,17.3c2.94-4.53,6.45-8.87,10.17-11.2,3.13-2,7.54-3.07,13.07-3.07A64.89,64.89,0,0,1,151,204.84l4.14,1.18-3.93,1.78a58.68,58.68,0,0,0-13.1,8.49c-.67.6-1.38,1.27-2.14,2-5.52,5.17-13.76,12.9-26,14.43-.49,5.21-.74,10.45-.74,15.61,0,.74,0,1.49,0,2.26,2-5.07,4.54-10.1,7.67-13.18,6.1-6.11,18.2-7,24.87-7,1.76,0,2.84.07,2.84.07l4.15.26-3.32,2.57a67.84,67.84,0,0,0-11,11.11c-.59.81-1.22,1.7-1.89,2.66-4.31,6.15-10.76,15.33-22.32,19.38a162.11,162.11,0,0,0,2.92,17.5c.88-5.33,2.33-10.73,4.72-14.39,6.4-9.66,25.06-12.57,25.85-12.69l4.25-.64-2.88,3.25a62.15,62.15,0,0,0-8.59,13.1c-.36.81-.73,1.71-1.13,2.66-2.94,7-7.33,17.53-18,24.12A162.45,162.45,0,0,0,123.82,316c-.23-5.44.09-11.07,1.71-15.19,4.27-10.9,21.9-17.65,22.65-17.93l4-1.5-2.1,3.76a67.06,67.06,0,0,0-5.78,14.71c-.18.83-.36,1.77-.56,2.77-1.46,7.52-3.65,18.76-12.68,27.36a167.12,167.12,0,0,0,9.6,14.74c-1.31-5.18-2.12-10.66-1.41-15,2-11.53,17.86-22,18.53-22.41l3.56-2.31-1.26,4.11a65.86,65.86,0,0,0-2.54,15.57c0,1,0,2.05,0,3.18,0,8,.09,18.92-6.9,29.15,1.69,1.89,3.29,3.6,4.86,5.21q3.54,3.63,7.54,7.21c-2.34-4.83-4.25-10.07-4.37-14.5-.45-11.52,13-25.06,13.52-25.62l3.06-3.07-.45,4.36a60,60,0,0,0,.7,15.67c.19.94.41,1.95.64,3,1.63,7.44,4.05,18.57-.76,30.16A158.83,158.83,0,0,0,190.05,389c-3.31-4.26-6.28-9-7.3-13.31-2.89-11.34,7.46-27.39,7.91-28.07l2.29-3.52.52,4.2a68.7,68.7,0,0,0,3.95,15.29c.38.93.82,1.93,1.29,3,3.23,7.3,7.62,17.22,5.3,29.49a157.52,157.52,0,0,0,16.32,6.21c-4.1-3.45-8-7.46-9.9-11.44-5-10.59,1.83-28.53,2.12-29.29l1.56-4,1.34,4.09a63.12,63.12,0,0,0,6.9,14.12c.64.95,1.35,2,2.11,3,4.58,6.43,10.8,15.16,10.92,27.44a153,153,0,0,0,17.2,2.56c-4.68-2.5-9.27-5.58-12-9-7-9.2-3.92-28.3-3.79-29.11l.71-4.23Z"/><path class="cls-2" d="M460.09,270.41a66.62,66.62,0,0,1-9.28-13.19c-3.91-7.4-8.69-20.55-23-26.64a167.19,167.19,0,0,0-4.79-25.9c2.2,6.31,5.83,14.8,10.52,18.89,8.12,7.41,26.83,5.19,26.83,5.19a59.42,59.42,0,0,1-11.75-10.82c-5.35-6.35-12.73-18.16-27.87-21a167.48,167.48,0,0,0-9.91-24.23c3.47,5.68,8.7,13.05,14,16.05,9.43,5.49,27.42-.59,27.42-.59a63,63,0,0,1-13.78-8C432,175,422.31,165,406.9,165.33a164.85,164.85,0,0,0-14.8-21.84c4.56,4.85,11.31,11.16,17.23,13.09,10.29,3.26,26.68-6.52,26.68-6.52a61.4,61.4,0,0,1-15.23-4.89c-7.22-3.7-18.77-11.5-33.78-7.74a163.44,163.44,0,0,0-19.59-18.72c5.48,3.85,13.76,8.92,20.16,9.56,10.73,1,24.66-12,24.66-12a57,57,0,0,1-15.81-1.63c-7.81-2.07-20.68-7.08-34.71-.34a160.81,160.81,0,0,0-22.39-13.89c6.1,2.56,14.89,5.6,21.13,4.9,10.73-1.34,21.75-17,21.75-17A56,56,0,0,1,366.39,90c-8.1-.3-21.68-2.65-34,7a158.45,158.45,0,0,0-23.93-8.62c6.44,1.14,15.15,2,20.78.1,10.3-3.56,18-21.2,18-21.2a62.64,62.64,0,0,1-15.08,5c-8.09,1.48-21.77,2.08-31.9,14.06a159.49,159.49,0,0,0-25.75-3.34c6.6-.21,15.67-1.12,21-4.35,9.28-5.63,13.2-24.6,13.2-24.6a62.56,62.56,0,0,1-13.78,8.3C287.38,65.41,274,69,266.54,82.92A159.89,159.89,0,0,0,241.05,85c6.36-1.62,14.86-4.43,19.32-8.65,8-7.56,7.83-26.83,7.83-26.83a62.14,62.14,0,0,1-11.74,11c-6.79,4.58-19,10.92-23.43,26a157.62,157.62,0,0,0-25.18,7.75c6-2.89,14.08-7.52,17.71-12.74,6.24-9,2.18-27.86,2.18-27.86a63.82,63.82,0,0,1-9.28,13.19c-5.65,5.91-16.49,14.64-17.69,30.44A160,160,0,0,0,178.14,110c5.19-4.11,12-10.24,14.35-16C196.85,83.8,189,66.17,189,66.17a64.09,64.09,0,0,1-6.38,15c-4.34,7.09-13.14,17.87-11,33.5a163.05,163.05,0,0,0-19.13,16.68c4.16-5.12,9.15-12.25,10.29-18.17,2.18-10.82-9.14-26.38-9.14-26.38a61.21,61.21,0,0,1-3.19,15.86c-2.74,7.81-9.06,20.33-4,35.21a165.33,165.33,0,0,0-15.61,20.92c3.1-5.93,6.77-14.28,6.69-20.56-.15-11-14.22-23.86-14.22-23.86a71,71,0,0,1,.15,16.3c-1.3,8.27-4.9,21.69,3.11,35.28a163.94,163.94,0,0,0-10.83,23.24c1.77-6.4,3.52-15.06,2.21-21-2.32-10.82-18.71-20.31-18.71-20.31a62.27,62.27,0,0,1,3.33,15.86c.58,8.26-.27,22.24,10.29,33.77A166.88,166.88,0,0,0,107,222.35c.43-6.62.37-15.37-2.15-20.86-4.49-10.08-22.48-15.86-22.48-15.86a60.89,60.89,0,0,1,6.53,14.82c2.16,8,4.34,21.81,17,30.85q-.84,8.4-.85,17,0,4.09.2,8.15c-.95-6.51-2.79-14.77-6.29-19.42-6.53-8.89-25.24-10.82-25.24-10.82a61.25,61.25,0,0,1,9.43,13c3.75,7.37,8.65,20.44,22.81,26.57a167.93,167.93,0,0,0,4.51,25c-2.25-6.17-5.73-13.95-10.06-17.88-8.27-7.26-27-5.19-27-5.19a62.87,62.87,0,0,1,11.89,10.82c5.19,6.34,12.54,18.24,27.74,21.14a166,166,0,0,0,9.7,23.78c-3.45-5.65-8.55-12.79-13.8-15.72-9.42-5.48-27.26.74-27.26.74a60,60,0,0,1,13.78,8c6.36,5.17,16,15.19,31.47,14.82a166.11,166.11,0,0,0,14.16,21c-4.52-4.76-10.89-10.53-16.48-12.27-10.44-3.26-26.69,6.38-26.69,6.38a62.73,62.73,0,0,1,15.08,5c7.36,3.53,18.74,11.32,33.85,7.75a165.56,165.56,0,0,0,18.22,17.61c-5.38-3.68-12.83-8-18.71-8.61-10.87-1-24.8,12-24.8,12a64,64,0,0,1,15.81,1.63c7.94,2.07,20.77,7.21,34.61.39a162.5,162.5,0,0,0,21.34,13.37c-6-2.45-14.13-5.08-20-4.42-10.73,1.33-21.76,17-21.76,17a62.81,62.81,0,0,1,15.81-1.77c8.08.29,21.61,2.63,33.88-7a157,157,0,0,0,23.58,8.55c-6.38-1.14-14.82-2-20.33-.1-10.29,3.55-17.84,21.34-17.84,21.34a60.06,60.06,0,0,1,15.09-5.19c8.08-1.32,21.76-2.07,31.76-13.91a158,158,0,0,0,24.2,3.26c-6.39.3-14.47,1.31-19.41,4.28-9.29,5.63-13.06,24.6-13.06,24.6a62.64,62.64,0,0,1,13.64-8.15c7.63-3.09,20.83-6.63,28.26-20.46a158.77,158.77,0,0,0,25.3-2.07c-6.31,1.6-14.54,4.33-18.9,8.45-8,7.56-8,26.83-8,26.83a62.73,62.73,0,0,1,11.75-11c6.79-4.58,19.2-10.93,23.59-25.93a157.28,157.28,0,0,0,23.65-7.17c-5.76,2.91-12.92,7.23-16.2,12.05-6.38,9.19-2.32,28-2.32,28a59.8,59.8,0,0,1,9.28-13.19c5.78-6.05,16.43-14.75,17.67-30.46a160.78,160.78,0,0,0,22.61-12.67c-5.18,4.1-11.87,10.17-14.32,15.85-4.2,10.23,3.48,27.87,3.48,27.87a61.88,61.88,0,0,1,6.39-14.82c4.33-7.1,13.14-18,11.18-33.66a164,164,0,0,0,20.24-17.94c-4.34,5.11-10.22,13-11.55,19.43-2,10.82,9.13,26.39,9.13,26.39a62.84,62.84,0,0,1,3.19-15.86c2.9-7.85,9.27-20.43,4.08-35.23a166.45,166.45,0,0,0,15.71-21.12c-3.14,5.93-7,14.46-6.88,20.77.15,11.12,14.22,23.87,14.22,23.87a65.34,65.34,0,0,1,0-16.16c1.15-8.27,4.76-21.86-3.28-35.31a166.23,166.23,0,0,0,10.91-23.4c-1.79,6.4-3.6,15.13-2.27,21.06,2.47,10.82,18.86,20.46,18.86,20.46A68.83,68.83,0,0,1,431.23,333c-.44-8.41.27-22.4-10.31-33.78a166.61,166.61,0,0,0,5.91-25.28c-.43,6.65-.4,15.56,2.08,21.12,4.49,10.07,22.48,15.85,22.48,15.85a64.33,64.33,0,0,1-6.53-14.82c-2.17-8-4.2-21.79-16.93-30.84q.82-8.32.83-16.88c0-3.49-.14-7-.35-10.38.83,6.74,2.63,16.39,6.44,21.64C441.38,268.48,460.09,270.41,460.09,270.41ZM360.55,379.93c-10.33-9.9-23.14-10-30.85-10.81a62.72,62.72,0,0,1-15.37-4.44S322.74,382,333.18,385c6.35,1.86,16.11.06,22.52-1.55A158.91,158.91,0,0,1,331.76,397c-8.09-11.81-20.73-14.62-28-17.15a64.32,64.32,0,0,1-14.07-7.56s4.64,18.67,14.21,23.86c5.79,3.14,15.69,3.46,22.32,3.26a155.73,155.73,0,0,1-26.08,8.13c-5.53-13.3-17.34-18.73-23.94-22.8A63.7,63.7,0,0,1,264,374.31s.72,19.27,9,26.39c5,4.3,14.51,6.73,21,8a157,157,0,0,1-27.07,2.4c-2.68-14.31-13.13-21.94-18.77-27.42a67.11,67.11,0,0,1-9.86-12.75s-3.19,19.12,3.48,27.87c4,5.2,12.77,9.56,18.9,12.14a155.69,155.69,0,0,1-26.9-3.39c.36-14.53-8.34-24.22-12.74-30.84A64.69,64.69,0,0,1,214,362.16s-7,17.93-2.18,28c2.89,6,10.66,12.15,16.12,16A155,155,0,0,1,202.22,397c3.18-14.17-3.22-25.48-6.24-32.79a69.71,69.71,0,0,1-4.07-15.71s-10.44,16-7.68,26.83c1.53,6.43,7.85,14.12,12.44,19A157.67,157.67,0,0,1,173.4,380c6-13.15,2-25.67.53-33.39a61,61,0,0,1-.73-16.16s-13.48,13.49-13,24.46c.18,6.64,4.73,15.39,8.21,21.17a162.3,162.3,0,0,1-14-12.73c-2-2-3.89-4.09-5.75-6.21,8.49-11.55,7.21-24.47,7.35-32.47a66.27,66.27,0,0,1,2.61-16S142.6,319,140.72,330c-1.07,6.48,1.59,16,3.79,22.32a163.92,163.92,0,0,1-15.46-22.65c10.64-9.42,12-22.47,13.7-30.2a68.09,68.09,0,0,1,5.94-15.12S131,291,126.94,301.39c-2.43,6.16-1.73,16.15-.85,22.84a162.84,162.84,0,0,1-10.63-25.61c12.49-7.1,16.44-19.57,19.6-26.73a63.17,63.17,0,0,1,8.85-13.48s-18.71,2.81-24.8,12c-3.57,5.47-4.94,15.28-5.47,22a163.86,163.86,0,0,1-5.12-27.14c13.6-4.2,20-15.57,24.65-21.88A68.62,68.62,0,0,1,144.49,232s-18.86-1.18-26.54,6.52c-4.64,4.56-8,13.88-9.93,20.39-.22-3.51-.37-7-.37-10.6a168.16,168.16,0,0,1,.87-17c14.13-1.24,22.79-11,28.57-16.16a60.27,60.27,0,0,1,13.49-8.75s-18.28-5.19-27.41.74c-5.57,3.49-10.74,12-13.88,17.92A164.62,164.62,0,0,1,115.44,198c14.06,1.77,24.48-5.88,31.22-9.68a58.68,58.68,0,0,1,14.94-5.78s-16.68-8.9-27-5c-6.16,2.22-13,9.52-17.26,14.69A163,163,0,0,1,129,166.92c13.43,4.76,25.17-.54,32.59-2.93a59.08,59.08,0,0,1,15.67-2.37s-14.51-12.3-25.39-10.82c-6.34.91-14.38,6.49-19.63,10.64a163.66,163.66,0,0,1,16.32-22c12.14,7.49,24.64,4.68,32.47,4a66.54,66.54,0,0,1,15.81,1s-11.75-15.11-22.63-15.85c-6.38-.46-15.28,3.18-21.26,6.08.47-.49.92-1,1.39-1.49a158.36,158.36,0,0,1,18.94-16.54c10.34,9.85,23.25,9.92,31,10.91a59.13,59.13,0,0,1,15.23,4.3s-8.41-17.2-18.85-20.31c-6.23-1.85-16-.07-22.39,1.53a156.6,156.6,0,0,1,24-13.48c8.07,11.92,20.59,14.61,28,17.29a60.3,60.3,0,0,1,14.07,7.41s-4.78-18.68-14.36-23.87c-5.75-3.12-15.5-3.45-22.1-3.25a154.14,154.14,0,0,1,26-8.05c5.53,13.37,17.18,18.65,23.77,22.72a62.09,62.09,0,0,1,12.32,10.37s-.72-19.27-9.13-26.38c-4.86-4.24-14.12-6.67-20.63-7.92a157.92,157.92,0,0,1,26.71-2.31c2.82,14.23,13.1,22,18.72,27.27a61.23,61.23,0,0,1,9.86,12.75s3.19-19-3.48-27.72c-3.88-5.14-12.47-9.5-18.62-12.13A157,157,0,0,1,300,89.11c-.21,14.47,8.33,24.26,12.72,30.71a64.66,64.66,0,0,1,7.11,14.53s7-17.94,2.17-27.87c-2.77-5.94-10.43-12.09-15.91-15.94a155.43,155.43,0,0,1,25.62,9.07c-3.18,14,3.22,25.5,6.25,32.81a63.82,63.82,0,0,1,3.91,15.71s10.45-16.16,7.84-26.83c-1.63-6.53-7.94-14.2-12.5-19.08a156.63,156.63,0,0,1,23.34,14.38c-6,13-2.06,25.57-.55,33.31a66.09,66.09,0,0,1,.58,16.3s13.49-13.48,13.2-24.6c-.27-6.63-4.91-15.49-8.38-21.25a160.58,160.58,0,0,1,14.18,12.8c2,2,3.83,4.05,5.67,6.15C376.71,150.88,378,164,378,171.85a63.12,63.12,0,0,1-2.76,16s16-10.22,17.84-21.19c1.17-6.54-1.57-16.22-3.82-22.62a164.76,164.76,0,0,1,15.57,22.87c-10.71,9.54-12,22.56-13.78,30.28a64.31,64.31,0,0,1-5.8,15s17.69-6.67,21.76-16.9c2.4-6.09,1.74-16,.88-22.7A165.77,165.77,0,0,1,418.38,198c-12.38,7-16.34,19.44-19.64,26.6a63.38,63.38,0,0,1-8.85,13.49s18.71-2.82,24.8-12c3.58-5.48,4.95-15.28,5.47-22a164.76,164.76,0,0,1,5.11,27.13c-13.48,4.33-20,15.55-24.65,22a59.59,59.59,0,0,1-11.31,11.26S408.17,265.67,416,258c4.6-4.52,7.9-13.73,9.78-20.23.22,3.51.37,7,.37,10.6a165.36,165.36,0,0,1-.86,16.89c-14.17,1.28-22.68,11-28.58,16.31a60.2,60.2,0,0,1-13.35,8.59s18.13,5.19,27.42-.59c5.4-3.53,10.53-11.87,13.71-17.83a165.16,165.16,0,0,1-6.1,26.81c-14.13-1.72-24.39,5.91-31.26,9.84A61.54,61.54,0,0,1,372.34,314s16.68,8.89,26.83,5.18c6.09-2.28,12.89-9.48,17.21-14.66a163.72,163.72,0,0,1-11.54,25.06c-13.4-4.58-25.09.7-32.5,2.94a59.47,59.47,0,0,1-15.66,2.38s14.5,12.3,25.23,10.82c6.32-.91,14.36-6.44,19.65-10.58a164.18,164.18,0,0,1-16.27,22c-12.16-7.43-24.68-4.75-32.38-4a59.54,59.54,0,0,1-16-1s11.75,15.12,22.63,15.86c6.46.46,15.53-3.28,21.5-6.2-.5.53-1,1.08-1.49,1.6A161.43,161.43,0,0,1,360.55,379.93Z"/><ellipse class="cls-3" cx="266.9" cy="248.25" rx="110.39" ry="112.81"/><ellipse class="cls-4" cx="266.9" cy="248.25" rx="97.93" ry="100.08"/><path class="cls-5" d="M266.9,362.86c-61.84,0-112.15-51.41-112.15-114.61s50.31-114.6,112.15-114.6S379,185.06,379,248.25,328.74,362.86,266.9,362.86Zm0-226.23c-60.23,0-109.23,50.07-109.23,111.62s49,111.62,109.23,111.62S376.13,309.8,376.13,248.25,327.13,136.63,266.9,136.63Z"/><path class="cls-6" d="M266.9,349.82c-54.8,0-99.39-45.56-99.39-101.57S212.1,146.68,266.9,146.68s99.39,45.57,99.39,101.57S321.7,349.82,266.9,349.82Zm0-200.16c-53.2,0-96.47,44.23-96.47,98.59s43.27,98.59,96.47,98.59,96.47-44.23,96.47-98.59S320.09,149.66,266.9,149.66Z"/><path d="M300.15,246.88l-.09-1.7H265.14v6.15H294a28.16,28.16,0,0,1-7,15.75c-.5.57-1.06,1.14-1.65,1.69a26.84,26.84,0,0,1-18.42,7.34c-15,0-27.26-12.49-27.26-27.86s12.22-27.86,27.26-27.86a26.79,26.79,0,0,1,17,6.12l-2.44,2.5a23.38,23.38,0,0,0-14.58-5.11c-13.14,0-23.83,10.93-23.83,24.35s10.69,24.35,23.83,24.35a23.77,23.77,0,0,0,17.77-8.14l1.1-1.26-4.26-4.37-1.24,1.44a17.8,17.8,0,0,1-1.61,1.64,17.56,17.56,0,0,1-11.76,4.55,18.21,18.21,0,0,1,0-36.41,17.51,17.51,0,0,1,11.75,4.54,18,18,0,0,1,1.62,1.65l1.24,1.43,11-11.21-1.14-1.27c-.6-.66-1.23-1.3-1.87-1.91a32.78,32.78,0,0,0-22.57-9c-18.35,0-33.28,15.26-33.28,34s14.93,34,33.28,34a32.77,32.77,0,0,0,22.56-9c.63-.59,1.26-1.23,1.87-1.91a34.34,34.34,0,0,0,8.82-21.71c0-.41,0-.85,0-1.36S300.17,247.29,300.15,246.88Zm-1.76,2.65A32.41,32.41,0,0,1,290,270.1c-.56.62-1.15,1.23-1.77,1.8a31,31,0,0,1-21.37,8.57c-17.38,0-31.52-14.45-31.52-32.22S249.52,216,266.9,216a31,31,0,0,1,21.37,8.56c.62.58,1.21,1.18,1.77,1.81l-1.77,1.8-6.68,6.84a23.28,23.28,0,0,0-1.77-1.81,19.27,19.27,0,0,0-12.92-5,20,20,0,0,0,0,40,19.22,19.22,0,0,0,12.92-5,21.48,21.48,0,0,0,1.77-1.8l1.76,1.81a23,23,0,0,1-1.76,1.8,21.72,21.72,0,0,1-14.69,5.74,22.56,22.56,0,0,1,0-45.11,21.72,21.72,0,0,1,14.69,5.74l4.92-5a28.59,28.59,0,0,0-19.61-7.82c-16,0-29,13.31-29,29.66s13,29.66,29,29.66a28.58,28.58,0,0,0,19.61-7.81c.61-.58,1.2-1.18,1.76-1.81a29.8,29.8,0,0,0,7.62-18.76h-29V247h31.49c0,.42,0,.85,0,1.27S298.41,249.11,298.39,249.53Z"/><path d="M334.93,299.36a5.38,5.38,0,0,1-5.24-4.42l-.11-.57H315.19V266.09H301.05l-.19.38A39.14,39.14,0,0,1,287,281.74a37.47,37.47,0,0,1-40.24,0,39.2,39.2,0,0,1-13.85-15.24l-.19-.39H217.17v19.54L203.89,292l.14.56a5.61,5.61,0,0,1,.18,1.32,5.34,5.34,0,1,1-5.34-5.45,5.24,5.24,0,0,1,4.3,2.25l.34.47,12.74-6.09V265.2h16l-.43-1a39.62,39.62,0,0,1-3.21-14.6l0-.69H204.21l-.1.57a5.46,5.46,0,1,1,0-2.08l.1.57H228.6l0-.68a39.62,39.62,0,0,1,3.37-15l.45-1H217.69V203.07H204.21l-.1.57a5.46,5.46,0,1,1,0-2.08l.1.57H218.6v28.29h14.29l.19-.38a37.9,37.9,0,0,1,67.57,0l.2.37h15.78V210.83l13.28-6.34-.14-.57a5.54,5.54,0,0,1-.18-1.32,5.34,5.34,0,1,1,5.34,5.46,5.24,5.24,0,0,1-4.3-2.25l-.34-.48-12.75,6.1V231.3H301.3l.44,1a39.31,39.31,0,0,1,3.38,14.6l0,.68h24.44l.11-.58a5.46,5.46,0,1,1,0,2.08l-.11-.57H305.17v.7A39.49,39.49,0,0,1,302,264.16l-.43,1h14.59v28.29h13.47l.11-.58a5.35,5.35,0,1,1,5.24,6.5Zm-68.05-89.13c-20.62,0-37.4,17.14-37.4,38.22s16.78,38.22,37.4,38.22,37.4-17.14,37.4-38.22S287.5,210.23,266.88,210.23Z"/><path class="cls-7" d="M62,346.17c-.05-.1-.11-.12-.26-.1l-3.38.27a4.65,4.65,0,0,0-1.41.31c-.38.18-.56.49-.26,1.12l.15.31c.12.24.11.32,0,.38s-.27,0-.37-.24c-.32-.65-.67-1.56-1-2.19-.11-.23-.71-1.32-1.21-2.38-.13-.26-.15-.4,0-.48s.2,0,.28.16a7,7,0,0,0,.35.61c.57.88,1.46.93,2.7.83l15.36-1.09c.72-.05,1,0,1.11.17s0,.4-.42.83c-.91,1-7.68,8.3-10.21,11.13-1.5,1.67-1.51,2.4-1.41,2.88a4.47,4.47,0,0,0,.33.9c.08.16.1.27,0,.34s-.3-.08-.66-.84-1.07-2.21-1.81-3.86c-.15-.38-.27-.63-.12-.7s.2,0,.32.2a.39.39,0,0,0,.57-.05l3.5-3.69a.21.21,0,0,0,0-.27Zm3,3.66c.05.1.13.09.18,0l4.24-4.29c.07-.06.17-.13.14-.2s-.16-.05-.25,0l-6,.58c-.09,0-.14.07-.11.15Z"/><path class="cls-7" d="M76.4,363.45c3-1.87,3.52-2.21,4.12-2.64s.86-.81.6-1.53a5,5,0,0,0-.41-.78c-.14-.21-.17-.35,0-.44s.26,0,.44.32c.64,1,1.33,2.25,1.69,2.83s1.11,1.62,1.54,2.31c.18.29.22.45.09.53s-.25,0-.37-.19a3.11,3.11,0,0,0-.41-.52c-.42-.46-.85-.4-1.56,0s-1.19.7-4.17,2.57l-2.74,1.72c-2.83,1.78-3.68,3.08-3.87,4.51A4.08,4.08,0,0,0,72,375a4.36,4.36,0,0,0,2.71,2c1.74.38,3.53-.67,5.55-1.93l2.44-1.54c3-1.86,3.52-2.21,4.13-2.64s.85-.81.6-1.52a4.68,4.68,0,0,0-.38-.73c-.13-.21-.16-.35,0-.43s.26,0,.43.29c.61,1,1.31,2.22,1.32,2.24.15.23,1,1.39,1.43,2.14.17.27.21.42.08.51s-.25,0-.39-.23a3.89,3.89,0,0,0-.41-.52c-.42-.46-.85-.4-1.56,0s-1.2.7-4.17,2.57l-2.09,1.31c-2.18,1.37-4.62,2.6-7,1.88a6.65,6.65,0,0,1-3.91-3.09,7.18,7.18,0,0,1-1.32-5.1c.29-1.54,1.28-3.18,4.12-5Z"/><path class="cls-7" d="M92.43,387.2c2.71-2.23,3.21-2.64,3.75-3.14s.75-.91.4-1.59a4.33,4.33,0,0,0-.5-.72c-.16-.2-.21-.33-.09-.43s.26,0,.48.25c.76.93,1.61,2.07,2,2.56s1.4,1.59,2.26,2.64c1.8,2.18,4.19,5.1,3.72,8.67a8.34,8.34,0,0,1-3.14,5.42,9.3,9.3,0,0,1-6.55,2.19c-1.5-.11-4.26-.89-6.91-4.12-.52-.63-1-1.39-1.54-2.09s-.94-1.37-1.3-1.8c-.16-.19-.47-.58-.84-1s-.73-.83-1-1.18-.23-.39-.11-.49.2-.05.37.16a4.28,4.28,0,0,0,.59.57c.36.29.82.05,1.4-.3.82-.53,2.23-1.69,3.87-3Zm-.18,3.8c-1.89,1.55-3.25,2.7-3.57,3a5.09,5.09,0,0,0-1.2,1.31c-.15.51,0,1.49,1.16,2.87a7.17,7.17,0,0,0,4.59,3c1.9.31,3.81-.67,5.65-2.18a7.93,7.93,0,0,0,3.08-5.34,8.88,8.88,0,0,0-2.28-6.43,6.13,6.13,0,0,0-1.06-1,.42.42,0,0,0-.53.08c-.62.48-2.18,1.76-3.59,2.92Z"/><path class="cls-7" d="M111.61,408.89c2.44-2.52,2.89-3,3.38-3.54s.64-1,.21-1.62a3.89,3.89,0,0,0-.58-.67c-.18-.17-.25-.3-.13-.41s.26,0,.5.19c.44.43.89.9,1.3,1.29s.76.81,1,1c.52.5,3.75,3.63,4.07,3.91a9.13,9.13,0,0,0,.8.57,2.46,2.46,0,0,1,.32.19c.08.08,0,.16,0,.24s-.38.24-1.17,1c-.18.15-.92.84-1.14,1s-.23.14-.34,0-.07-.23.08-.38a2.41,2.41,0,0,0,.48-.69c.17-.41.21-.76-.51-1.65-.24-.3-1.92-2-2.24-2.3-.08-.08-.16-.06-.28.06l-4.06,4.2c-.11.11-.16.19-.06.29.35.34,2.22,2.15,2.63,2.48s.71.53,1,.51.38,0,.46,0,.09.14,0,.24-.42.31-1.3,1.09c-.34.31-1,.93-1.14,1.05s-.31.31-.46.17a.18.18,0,0,1,0-.29,5.64,5.64,0,0,0,.52-.66c.24-.41.25-.88-.29-1.53-.27-.33-1.86-1.9-2.25-2.28-.08-.08-.16,0-.26.07l-1.27,1.31c-.55.57-2,2.08-2.49,2.57-1.08,1.18-1.06,1.68.6,3.28a5.53,5.53,0,0,0,1.72,1.28c.61.21,1.14.05,1.92-.52.21-.15.3-.18.42-.07s0,.25-.16.42a20,20,0,0,1-2,1.64c-.53.32-.68.18-1.29-.42-1.22-1.18-2.08-2.08-2.76-2.77s-1.16-1.21-1.64-1.68c-.18-.18-.54-.52-.94-.88s-.83-.74-1.16-1.05-.27-.37-.16-.48.19-.07.39.11a3,3,0,0,0,.65.5c.38.25.82,0,1.35-.45.76-.62,2-1.93,3.5-3.46Z"/><path class="cls-7" d="M124.56,430.79c-1.06,1.46-1.19,2.12-.93,2.52a3.72,3.72,0,0,0,.84.84c.2.15.28.27.19.38s-.3.06-.55-.13c-1.17-.89-1.84-1.5-2.19-1.76-.16-.12-1-.71-2-1.42-.23-.18-.38-.32-.25-.49s.22-.06.4.07a3.81,3.81,0,0,0,.88.53c.57.21,1-.27,2.29-1.85l8.42-10.69c.28-.37.53-.58.71-.45s.18.52.23,1.08c0,.4.52,5.42,1.11,10.09.27,2.18.67,6.68.75,7.2l.09.07,6.12-8.38c.84-1.13.94-1.6.65-2.12a3.42,3.42,0,0,0-.87-.83c-.21-.17-.24-.28-.16-.39s.33,0,.6.19c.93.72,1.75,1.43,2.13,1.72.2.15.92.62,1.8,1.29.23.18.4.33.29.48s-.24.08-.45-.08a2.5,2.5,0,0,0-.58-.36c-.62-.24-1.06,0-1.86,1.05l-9.05,11.43c-.3.41-.5.52-.66.39a1.36,1.36,0,0,1-.31-.87c-.29-2-.75-6.12-1.17-9.44-.44-3.48-.73-7.24-.78-7.83l-.06,0Z"/><path class="cls-7" d="M157.76,437.94l-3-1.62c-1.15-.62-1.68-.8-2.23-.53a3,3,0,0,0-.74.5c-.13.14-.23.18-.35.12s-.12-.21,0-.43,1.62-1.91,1.75-2.05.34-.31.46-.24.23.41.7.73a20.63,20.63,0,0,0,1.89,1.24l7.72,4.53a10,10,0,0,0,1.4.69,4.35,4.35,0,0,1,.59.21c.14.08.08.21-.09.51s-1.11,1.76-1.41,2.28c-.14.18-.25.28-.37.21s-.13-.21,0-.52l.11-.23c.27-.54.07-1.41-1.64-2.47l-2.43-1.5-4.78,8.17c-1.08,1.84-2,3.41-2.4,4.32-.27.6-.41,1.1.13,1.53a9.26,9.26,0,0,0,.94.66c.22.12.28.24.22.34s-.27.11-.48,0c-1.29-.75-2.48-1.53-3-1.85s-1.71-.92-2.49-1.38c-.26-.15-.36-.29-.28-.43s.18-.11.41,0a3.55,3.55,0,0,0,.75.34c.43.14.81-.23,1.21-.77.58-.78,1.51-2.35,2.58-4.19Z"/><path class="cls-7" d="M173.39,452.38c1.44-3.2,1.71-3.79,2-4.48s.27-1.14-.34-1.6a5.68,5.68,0,0,0-.77-.42c-.23-.1-.34-.2-.27-.35s.23-.12.54,0c.56.25,1.14.54,1.66.77s1,.5,1.28.63c.66.3,4.76,2.15,5.16,2.3a7.77,7.77,0,0,0,.94.28,2.38,2.38,0,0,1,.37.06c.1.05.08.14,0,.25a13.34,13.34,0,0,0-.79,1.29c-.11.2-.57,1.11-.73,1.34s-.17.21-.31.14-.14-.19,0-.38a2.58,2.58,0,0,0,.22-.81c0-.44-.07-.79-1-1.38-.33-.2-2.48-1.22-2.89-1.41-.1,0-.17,0-.24.15l-2.41,5.32c-.06.15-.08.24,0,.3.46.2,2.83,1.27,3.32,1.45a1.59,1.59,0,0,0,1.13.13c.22-.11.35-.17.45-.13s.13.11.07.24-.29.42-.86,1.46c-.21.41-.65,1.22-.72,1.37s-.18.4-.37.32a.2.2,0,0,1-.1-.28,6.55,6.55,0,0,0,.27-.79c.08-.47-.06-.91-.79-1.34-.37-.22-2.4-1.16-2.89-1.39-.11,0-.17,0-.22.16l-.75,1.66c-.33.71-1.22,2.64-1.48,3.26-.62,1.47-.43,1.94,1.67,2.89a5.69,5.69,0,0,0,2.05.62c.65,0,1.1-.34,1.63-1.14.15-.21.23-.28.37-.21s.09.24,0,.45a17.72,17.72,0,0,1-1.33,2.21c-.39.49-.57.4-1.36.05-1.54-.7-2.66-1.25-3.53-1.68s-1.5-.75-2.12-1l-1.18-.51c-.47-.21-1-.41-1.44-.6s-.38-.25-.32-.39.16-.13.41,0a3.42,3.42,0,0,0,.78.25c.45.1.76-.32,1.12-.89.5-.84,1.25-2.5,2.13-4.43Z"/><path class="cls-7" d="M189,470.21c-.29-.26-.32-.4-.16-.88.41-1.2.94-2.49,1.08-2.83s.28-.54.45-.48.15.27.09.44a4.94,4.94,0,0,0-.19,1.19,3.13,3.13,0,0,0,2.32,3.24,2.76,2.76,0,0,0,3.71-1.52c.36-1.07.38-2.19-.91-4.21l-.72-1.12c-1.72-2.68-2-4.49-1.42-6.26.82-2.41,3.37-3.47,6.35-2.46a10.88,10.88,0,0,1,2.72,1.33c.18.11.26.21.21.37s-.4.89-1,2.59c-.17.48-.29.64-.46.58s-.17-.2-.08-.47a2.9,2.9,0,0,0-2-3.49,2.39,2.39,0,0,0-3.31,1.39c-.34,1-.11,1.94,1.2,3.92l.45.66c1.91,2.87,2.32,4.69,1.62,6.77a4.69,4.69,0,0,1-3.3,3.13,6.45,6.45,0,0,1-3.71-.26A7.65,7.65,0,0,1,189,470.21Z"/><path class="cls-7" d="M228.4,473.91c-.37,2.19-.65,3.89-.71,4.87,0,.67,0,1.2.66,1.4a8.87,8.87,0,0,0,1.1.28c.29.05.37.13.35.25s-.2.2-.53.14c-1.4-.24-2.8-.54-3.37-.64s-2-.27-2.85-.41c-.31-.05-.46-.13-.42-.31s.12-.16.36-.12a4.11,4.11,0,0,0,.82,0c.46,0,.65-.5.86-1.14.27-.94.56-2.65.93-4.84l.67-4c.59-3.46.69-4.1.77-4.83s0-1.18-.74-1.46a4,4,0,0,0-.85-.22c-.23,0-.37-.11-.35-.24s.22-.2.55-.15l1.8.33,1.4.29c.84.14,5.37.9,5.88,1a4.22,4.22,0,0,0,.93.06,2.16,2.16,0,0,1,.38-.08.19.19,0,0,1,.12.24c0,.16-.18.41-.35,1-.06.23-.33,1.56-.42,1.83s-.12.31-.28.28-.18-.15-.16-.4a2.35,2.35,0,0,0,0-.89,1.59,1.59,0,0,0-1.35-.93l-3.42-.65c-.14,0-.21,0-.26.28l-1,5.7c0,.13,0,.21.12.23l2.86.46c.38.06.69.12,1,.15a1.2,1.2,0,0,0,1-.25c.14-.12.2-.2.33-.18s.12.09.1.23-.23.68-.42,1.38c-.12.45-.34,1.49-.37,1.65s-.07.43-.29.39-.15-.19-.13-.35a2.57,2.57,0,0,0,0-.73,1.34,1.34,0,0,0-1-1c-.55-.16-2.91-.56-3.29-.62-.11,0-.16,0-.19.17Z"/><path class="cls-7" d="M245.73,474.32c.19-3.94,3-8.92,9.76-8.59,5.62.27,9,3.79,8.7,9.07s-4.07,9.29-9.81,9C247.91,483.49,245.53,478.41,245.73,474.32ZM261,475.5c.25-5.16-2.5-8.51-6.2-8.69-2.6-.13-5.63,1.2-5.91,6.95-.23,4.8,2.17,8.73,6.51,8.94C257,482.78,260.66,482.17,261,475.5Z"/><path class="cls-7" d="M277.35,472.76c-.27-3.5-.31-4.15-.41-4.88s-.31-1.13-1.07-1.24a4.26,4.26,0,0,0-.88,0c-.25,0-.39,0-.4-.18s.14-.22.48-.25c1.19-.09,2.62-.13,3.09-.16.77-.06,2.47-.26,3.17-.31a7.15,7.15,0,0,1,4.22.68,4,4,0,0,1,1.77,3c.13,1.71-.45,3.32-2.59,5.38,2.2,2.43,3.91,4.36,5.35,5.69a4.54,4.54,0,0,0,2.64,1.38,4.74,4.74,0,0,0,.63,0c.19,0,.28.05.29.16s-.14.25-.41.27l-2.14.16a4.56,4.56,0,0,1-2.45-.26c-1-.46-1.94-1.47-3.34-3.15-1-1.2-2.15-2.69-2.47-3a.46.46,0,0,0-.41-.13l-2,.1a.16.16,0,0,0-.17.2l0,.32c.16,2.14.29,4,.48,4.92.12.66.29,1.16,1,1.2a10.6,10.6,0,0,0,1.12,0c.17,0,.27,0,.28.16s-.14.24-.43.26c-1.31.1-3,.16-3.32.18s-1.85.21-2.75.28c-.29,0-.45,0-.46-.2s.07-.19.34-.21a3.45,3.45,0,0,0,.81-.15c.44-.13.52-.64.56-1.32,0-1-.1-2.79-.26-4.91Zm2.79,1.62c0,.25.07.34.24.4a6.09,6.09,0,0,0,1.73.1,2.25,2.25,0,0,0,1.57-.51,4.12,4.12,0,0,0,1.07-3.56c-.25-3.27-2.44-4.05-3.77-3.95a4.54,4.54,0,0,0-1.18.18c-.16.06-.2.15-.18.34Z"/><path class="cls-7" d="M303.24,464.28,300,465c-1.28.29-1.79.5-2,1.06a2.72,2.72,0,0,0-.23.87c0,.19-.06.29-.2.31s-.22-.07-.26-.32,0-2.51,0-2.7.05-.46.18-.48a4.9,4.9,0,0,0,1,.09,21.66,21.66,0,0,0,2.24-.3l8.8-1.63a12.84,12.84,0,0,0,1.51-.4c.32-.13.49-.21.58-.23s.2.11.27.45.31,2.05.42,2.64c0,.23,0,.38-.13.4s-.25-.07-.33-.41l-.07-.24c-.15-.58-.87-1.11-2.86-.79l-2.81.46,1.73,9.31c.39,2.09.72,3.88,1,4.84.18.62.41,1.09,1.09,1.06a9.16,9.16,0,0,0,1.15-.12c.25-.05.37,0,.39.11s-.13.27-.38.31c-1.46.27-2.88.47-3.5.58s-1.9.43-2.79.59c-.28.05-.45,0-.48-.14s.05-.2.32-.25a3.64,3.64,0,0,0,.78-.24c.43-.17.47-.7.41-1.37-.06-1-.4-2.77-.78-4.86Z"/><path class="cls-7" d="M324,465.18c-1.05-3.35-1.25-4-1.51-4.66s-.56-1-1.32-1a4.11,4.11,0,0,0-.86.2c-.24.07-.38.07-.43-.09s.09-.24.41-.34c1.14-.36,2.52-.72,3.17-.92s1.85-.66,2.63-.9c.32-.1.49-.11.54.05s-.07.24-.29.3a3.48,3.48,0,0,0-.6.27c-.55.29-.6.72-.4,1.5s.37,1.34,1.42,4.69l1,3.08c1,3.2,2.05,4.34,3.38,4.89a4.08,4.08,0,0,0,3,.06,4.35,4.35,0,0,0,2.6-2.12c.8-1.58.25-3.59-.47-5.86l-.86-2.75c-1-3.35-1.24-4-1.51-4.66s-.56-1-1.32-1a4.61,4.61,0,0,0-.8.17c-.23.08-.38.07-.42-.08s.08-.25.39-.34c1.1-.34,2.47-.7,2.5-.71.26-.08,1.59-.57,2.43-.84.31-.09.47-.1.52.06s-.07.24-.33.32a3.41,3.41,0,0,0-.6.26c-.55.29-.6.72-.41,1.51s.38,1.33,1.43,4.68l.74,2.36c.76,2.45,1.34,5.12,0,7.27a6.65,6.65,0,0,1-4,3,7.2,7.2,0,0,1-5.26,0c-1.42-.67-2.75-2.05-3.75-5.24Z"/><path class="cls-7" d="M355.63,462c.81,1.61,1.33,2,1.81,2a3.48,3.48,0,0,0,1.13-.36c.22-.1.37-.12.43,0s-.09.29-.38.43c-1.33.62-2.18.94-2.57,1.12-.18.09-1.11.6-2.18,1.1-.26.13-.46.19-.55,0s.05-.22.25-.32a4,4,0,0,0,.88-.53c.45-.42.25-1.06-.58-2.9l-5.59-12.4c-.2-.42-.27-.74-.07-.84s.54.08,1.06.3,5.06,2,9.47,3.68c2.06.77,6.23,2.49,6.74,2.66l.1,0-4.61-9.3c-.61-1.26-1-1.57-1.57-1.55a3.54,3.54,0,0,0-1.15.38c-.24.11-.35.09-.41,0s.13-.29.44-.44c1.07-.5,2.08-.89,2.51-1.1.22-.1,1-.53,2-1,.26-.13.48-.2.56,0s0,.24-.29.36a2.29,2.29,0,0,0-.58.35c-.5.43-.45.95.08,2.13l5.95,13.31c.22.46.22.68,0,.77a1.36,1.36,0,0,1-.91-.14c-1.88-.65-5.79-2.16-8.92-3.32-3.29-1.21-6.76-2.7-7.32-2.93l-.06,0Z"/><path class="cls-7" d="M381,445.61c-.09.06-.11.13-.07.27l.65,3.33a4.36,4.36,0,0,0,.46,1.37c.22.35.55.5,1.15.13l.28-.19c.23-.14.31-.14.39,0s0,.27-.2.4c-.62.39-1.48.84-2.07,1.22-.21.13-1.23.85-2.22,1.47-.25.16-.39.19-.49,0s0-.21.13-.3a5.26,5.26,0,0,0,.57-.42c.81-.67.76-1.56.52-2.78L377.32,435c-.13-.72-.15-1,.05-1.12s.39,0,.87.32c1.13.79,9.11,6.69,12.2,8.89,1.83,1.31,2.56,1.23,3,1.08a4.2,4.2,0,0,0,.85-.43c.16-.1.27-.14.35,0s-.05.31-.76.75-2.08,1.31-3.64,2.23c-.35.2-.58.34-.67.21s0-.21.16-.35a.38.38,0,0,0-.11-.56L385.58,443a.21.21,0,0,0-.28,0Zm3.29-3.43c.1-.06.08-.13,0-.18l-4.74-3.73c-.07-.06-.15-.15-.21-.11s0,.16,0,.25l1.25,5.89c0,.09.08.14.16.09Z"/><path class="cls-7" d="M407,420.78c-2.28-2.66-2.71-3.15-3.22-3.68s-.93-.73-1.6-.36a4,4,0,0,0-.71.52c-.19.16-.32.21-.43.09s0-.26.24-.48c.91-.78,2-1.66,2.48-2s1.45-1.34,2.12-1.91c.24-.21.39-.28.49-.15s0,.24-.17.42a3,3,0,0,0-.45.48c-.39.49-.27.9.22,1.54s.87,1.08,3.16,3.74l2.79,3.24c.64.75,1.42,1.55,2.17,2.42a12.84,12.84,0,0,1,2.26,3.46,8.82,8.82,0,0,1-.07,5.81,11.44,11.44,0,0,1-.47,1.19,1,1,0,0,1-.25.4.18.18,0,0,1-.26,0c-.07-.09-.05-.23.11-.64a4.58,4.58,0,0,0,.25-1.37c.14-2.47-1.38-4.21-4.33-7.64Z"/><path class="cls-7" d="M418.89,410.06c-2.54-2.43-3-2.87-3.58-3.35s-1-.63-1.62-.21a4.54,4.54,0,0,0-.66.59c-.17.18-.3.25-.41.14s0-.26.19-.51c.83-.86,1.86-1.84,2.33-2.34s1.31-1.46,1.87-2.05c.23-.25.38-.33.49-.22s.06.24-.1.41a3.1,3.1,0,0,0-.4.52c-.34.52-.18.92.38,1.51s1,1,3.51,3.41l2.34,2.24c2.42,2.31,3.89,2.81,5.32,2.65a4.18,4.18,0,0,0,2.64-1.39,4.35,4.35,0,0,0,1.25-3.12c-.06-1.78-1.52-3.26-3.24-4.9l-2.09-2c-2.53-2.42-3-2.87-3.57-3.34s-1-.64-1.62-.21a4.15,4.15,0,0,0-.61.54c-.18.18-.3.25-.42.14s0-.26.18-.49c.79-.84,1.83-1.82,1.84-1.84.19-.19,1.12-1.27,1.73-1.9.22-.23.36-.31.48-.2s.06.24-.13.43a3.19,3.19,0,0,0-.4.53c-.34.52-.18.92.37,1.51s1,1,3.51,3.41l1.79,1.71c1.86,1.77,3.66,3.83,3.55,6.35a6.64,6.64,0,0,1-2.05,4.55,7.15,7.15,0,0,1-4.62,2.53c-1.56.1-3.39-.46-5.81-2.78Z"/><path class="cls-7" d="M432.91,387.94c-1.33-.35-1.76-.2-2.44.31a3.06,3.06,0,0,0-.6.65c-.13.16-.22.17-.33.09s0-.32.19-.6c.72-.95,1.55-1.94,2-2.57.34-.45.94-1.36,1.62-2.25.16-.22.35-.39.48-.29s.08.23,0,.39a1.5,1.5,0,0,0-.4.8.52.52,0,0,0,.25.47,6.55,6.55,0,0,0,1.73.66l10.7,3.23.06-.07c-1.44-2.31-5.6-9.14-6.49-10.49a2.9,2.9,0,0,0-.56-.68.45.45,0,0,0-.53,0,3,3,0,0,0-.63.65c-.13.16-.25.29-.38.2s-.06-.31.2-.65c.68-.9,1.3-1.62,1.48-1.85s.82-1.2,1.23-1.73c.17-.24.32-.35.45-.26s.08.24-.05.42a1.87,1.87,0,0,0-.45,1.05c0,.36.1.86.91,2.24,1.2,2,1.82,3.25,3.35,5.94,1.82,3.19,3.19,5.55,3.81,6.65.71,1.27.93,1.6.74,1.86s-.52.14-1.65-.17Z"/><path class="cls-7" d="M455.46,372.2c-.06.09,0,.16.05.27l2.07,2.69a4.56,4.56,0,0,0,1,1c.36.21.72.2,1.08-.4l.18-.29c.14-.23.22-.27.33-.19s.13.23,0,.44c-.38.62-.94,1.42-1.31,2-.13.21-.71,1.31-1.33,2.32-.15.25-.26.34-.42.24s-.11-.17,0-.33a6.09,6.09,0,0,0,.32-.62c.43-1,0-1.73-.77-2.72l-9.27-12.3c-.43-.58-.58-.82-.46-1s.35-.18.92-.09c1.37.19,11.14,1.92,14.89,2.51,2.22.35,2.84,0,3.18-.39a4.52,4.52,0,0,0,.58-.76c.09-.15.17-.24.31-.15s.09.29-.35,1-1.28,2.1-2.26,3.62c-.23.33-.37.56-.51.48s-.11-.17,0-.38a.39.39,0,0,0-.35-.45l-5-.93a.22.22,0,0,0-.26.11Zm1.41-4.54c.06-.1,0-.15-.06-.17l-5.91-1.22c-.09,0-.2-.07-.23,0s0,.15.1.22l3.75,4.72c.07.07.14.09.19,0Z"/><path class="cls-7" d="M458.1,346.36l-1.38,3.07c-.53,1.2-.66,1.74-.35,2.27a2.69,2.69,0,0,0,.56.7c.14.12.2.22.14.34s-.19.13-.42,0-2-1.46-2.19-1.58-.33-.31-.27-.44.38-.26.67-.75.76-1.31,1.09-2l3.89-8.06a10.86,10.86,0,0,0,.58-1.45,4.09,4.09,0,0,1,.16-.6c.07-.14.2-.1.52.05s1.84,1,2.38,1.22c.2.13.3.23.24.35s-.2.15-.52,0l-.24-.09c-.56-.22-1.41.05-2.33,1.84l-1.3,2.53,8.53,4.12c1.91.93,3.56,1.72,4.5,2.05.61.22,1.13.32,1.51-.25.17-.26.43-.69.58-1s.22-.3.33-.25.12.26,0,.49c-.65,1.34-1.34,2.59-1.61,3.16s-.79,1.78-1.18,2.6c-.13.26-.26.37-.4.3s-.13-.16,0-.4a4.29,4.29,0,0,0,.27-.78c.11-.44-.29-.79-.86-1.14-.82-.52-2.47-1.32-4.38-2.24Z"/></g></g></svg>